<?xml version="1.0" standalone="no"?>
<!DOCTYPE svg PUBLIC "-//W3C//DTD SVG 1.1//EN" "http://www.w3.org/Graphics/SVG/1.1/DTD/svg11.dtd" >
<svg>
<metadata>
Created by FontForge 20090914 at Fri Feb 24 04:59:45 2012
 By root
&#194;&#169; copyright 2003. Margarete Antonio.  All Rights Reserved.
</metadata>
<defs>
<font id="MASexy" horiz-adv-x="0" >
  <font-face 
    font-family="MA Sexy"
    font-weight="400"
    font-stretch="normal"
    units-per-em="2048"
    panose-1="2 0 0 0 0 0 0 0 0 0"
    ascent="1638"
    descent="-410"
    x-height="960.5"
    cap-height="1959.5"
    bbox="-215.498 -1577.29 3793.68 2056.24"
    underline-thickness="150"
    underline-position="-142"
    unicode-range="U+0020-U+201D"
  />
<missing-glyph horiz-adv-x="809" 
 />
    <glyph glyph-name=".notdef" horiz-adv-x="809" 
 />
    <glyph glyph-name=".null" 
 />
    <glyph glyph-name="nonmarkingreturn" 
 />
    <glyph glyph-name="space" unicode=" " horiz-adv-x="600" 
 />
    <glyph glyph-name="space" unicode="&#xa0;" horiz-adv-x="600" 
 />
    <glyph glyph-name="exclam" unicode="!" horiz-adv-x="395" 
d="M416 1913q21 -11 38 -28l-10 -170l-104 -897l-42 -368l9 -9q-13 -32 -51 -47q-20 3 -38 14q73 453 104 1530q35 16 94 -25zM235 82q25 -6 47 -23q10 -22 10 -47l-19 -47l-38 -29l-56 14l-5 62q12 18 24 42z" />
    <glyph glyph-name="quotedbl" unicode="&#x22;" horiz-adv-x="700" 
d="M228 2047q48 -7 67 -24l-13 -60l-12 -122l-31 -144q-29 29 -37 54l-14 263q11 18 40 33zM46 2048q26 -12 63 -27l-6 -73v-183q1 -61 -8 -62.5t-37 14.5q-7 22 -8 49q-4 21 -2 49l-35 148l-13 52q19 19 46 33z" />
    <glyph glyph-name="numbersign" unicode="#" horiz-adv-x="875" 
d="M718 1523q21 -7 43 -21l-7 -295l-6 -59q58 -3 109 2q0 -42 -8 -62l-103 -10q-20 -163 -22 -187l74 -2l61 -8l4 -13l-7 -26l-60 4l-69 -6l-6 -417l-7 -35q-14 -13 -33 -25q-19 7 -43 58l-1 44l20 370l-217 -29q-4 -94 -17.5 -170.5t-56 -172t-145 -159.5t-166.5 8t-51 179
t100 196t226 147q18 1 39 11l14 190l-134 -17l-22 -1q-33 51 -14 57l123 21l46 8l4 76l-11 224l-1 39l5 13l36 11l13 -10q18 -2 34 -15q2 -16 2 -36l-5 -13l-7 -200v-80l225 29l4 40l5 265l-2 35l10 8q10 18 24 34zM674 1075l-217 -23l-10 -184l109 9l96 10zM371 798
q-53 -24 -104 -51t-98 -97.5t-61 -168t26 -145t118 27t107 253.5z" />
    <glyph glyph-name="dollar" unicode="$" horiz-adv-x="823" 
d="M681 1810q24 -3 44 -22l-15 -181q74 -37 109 -146l8 -35l-12 -7l-42 -9l-28 35l4 37l-42 49l-2 -38l-44 -445q148 -153 176.5 -196t32.5 -81.5t2 -72t-32.5 -91.5t-78.5 -102.5t-109 -76.5l-3 -180q-16 -15 -40 -25q-24 1 -32 19l8 153l-50 -20l-6 -157l-44 -10l-16 19
l-6 142q-66 3 -106 13t-62 21.5t-40 24t-38 24t-34 27.5l-28 33.5t-24 36.5t-24 65.5t-18 91.5l-12 42q13 14 40 19q19 -11 36 -29q8 -19 24 -35q8 -93 16 -115.5t36 -62t44 -54t38 -26t46 -19.5t113 -13l-1 584l-2 55q-102 76 -162 113t-76 77t-19 94.5t24 105.5t95 109
t92 67.5l74 28.5v115l4 10q21 11 48 19q13 -16 16 -140q51 -2 90 -17q14 161 28 176zM561 1607l-28 -466l68 -52l44 491zM499 1595q-119 -89 -110.5 -188t32.5 -141t56 -64zM537 1010l-3 -585l14 10l36 16l1 101l4 416l-24 23zM651 935l-6 -95l-1 -360q121 133 116 230
t-61 176z" />
    <glyph glyph-name="percent" unicode="%" horiz-adv-x="774" 
d="M695.5 1879.5q24.5 -26.5 18 -71.5t-113.5 -129l-69 -45q-87 -605 -108 -865.5t-49.5 -344t-56.5 -140.5t-45 -79t-50 -44t-69 -36l-31 -3l-7 3q-12 7 -17.5 15t-3.5 25t7 22.5t24 -5.5t65.5 9.5t75.5 74t49 124t38.5 219t37.5 441.5t49 531l3 24q-41 -20 -58 -25.5
t-25.5 -8.5t-15 -9.5t-23 -56.5t-54 -96t-106.5 -43.5t-91.5 37.5t-25 85.5t18.5 92.5t46 68.5t57 45.5t53 20.5t29.5 0.5t34 -6.5t36.5 -16.5t17.5 -27.5t24.5 -18.5t47 14.5t47 21.5q57 140 96.5 178t79.5 41.5t64.5 -23zM564 1784.5q-57 -88.5 44 -34t57 88.5t-101 -54.5
zM181 1666.5q-42 -27.5 -65.5 -111.5t16 -105.5t73 10t47.5 70.5t15 58.5t-1.5 42.5t-22.5 43t-62 -7.5zM638.5 700q28.5 -4 45.5 -21l25.5 -25.5t15 -20.5t10.5 -27t2 -21t-2 -13.5t-9.5 -34t-24.5 -43.5t-26 -24t-24.5 -11.5t-26 -7t-26.5 -3.5t-42.5 6.5t-49.5 20.5
t-34 36t-15 30.5t0 26.5t15 41.5t20.5 31.5t17 17t28.5 19.5t31.5 14t26.5 7.5t42.5 1zM597.5 663q-31.5 -8 -58.5 -32.5t-14.5 -50t44 -43.5t64 -11.5t51 36.5t11 57t-36.5 39.5t-60.5 4.5z" />
    <glyph glyph-name="ampersand" unicode="&#x26;" horiz-adv-x="828" 
d="M564 1528q30 0 54 -7.5t57 -31t54.5 -59t33 -81.5t-16 -126.5t-157.5 -180.5t-146 -119q12 -14 65.5 -54t90.5 -71q-29 65 -34.5 75t-10 23.5t6.5 19t37 9.5q16 -2 25 -15.5l27 -42.5t34 -104q71 -29 118 -83t63.5 -99.5t17 -107t-21 -122t-63 -114.5t-87 -90
t-93.5 -38.5t-80 31t-24 108t34 112.5t42 55t36 29t44 9.5t44 -14.5t23 -24t4 -26.5t-15 -21.5l-31 -13t-19.5 2.5t-14 12t-27.5 -11t-37 -39.5t-29 -49t-12 -52.5t10 -48t28 -21.5t40 7.5t65 44.5t58 71.5t29.5 108t4.5 129t-30.5 101t-71.5 75.5q3 -32 -13.5 -80.5
t-60.5 -102t-86.5 -92.5t-122.5 -80t-126 -43.5t-90 4.5t-98.5 45.5t-62.5 91t10.5 122t92.5 156t222 220.5q-40 62 -71 148.5t-16 178.5t58 151t90 84.5t83 33t66 7.5zM500.5 1440.5q-43.5 -22.5 -67 -54t-46.5 -88.5t-28.5 -118.5t8.5 -115.5t40 -93q139 101 190 164
t76 115t29 99.5t-28 85.5t-81 33t-92.5 -27.5zM390 882q-110 -96 -156.5 -142.5t-72.5 -123t-22.5 -121t31 -77.5t68 -40.5t81 -4.5t89 24.5t103 65t81.5 116t23.5 106t-14.5 44t-58.5 47t-82 57t-70.5 49.5z" />
    <glyph glyph-name="quotesingle" unicode="'" horiz-adv-x="505" 
d="M277 1885q19 -24 24.5 -56.5t-14.5 -79t-42 -89t-59 -72t-50 -25.5t-18 19t15.5 18t44.5 24.5t34.5 49t15.5 70.5l-20 2q-67 13 -80.5 41t-7 55.5t17 37t23.5 18.5t55 10t61 -23z" />
    <glyph glyph-name="parenleft" unicode="(" horiz-adv-x="807" 
d="M710 2056q9 -2 18 -10t12.5 -19.5t-33.5 -50t-184 -251.5t-239.5 -637.5t-45.5 -708t125.5 -522t135.5 -325t68 -109t2.5 -29.5l-14.5 -12t-114 164t-164 299.5t-98 324.5t-45 429t44 477.5t137 427t175 302t136 170.5t63 67.5t21 12.5z" />
    <glyph glyph-name="parenright" unicode=")" horiz-adv-x="667" 
d="M166.5 1959q50.5 -53 136 -170t175.5 -301.5t137 -427t44 -477.5t-45.5 -429t-98 -325t-163.5 -299.5t-114 -163.5t-14.5 11.5t2.5 29t68 109t135.5 325.5t125.5 522.5t-46 707.5t-239.5 637.5t-184 252t-33.5 50t13 19t18 10t21 -12.5t62.5 -68z" />
    <glyph glyph-name="asterisk" unicode="*" horiz-adv-x="663" 
d="M612 2023q29 -6 49.5 -15t33.5 -29t14.5 -40.5t-2.5 -37t-11.5 -29t-20.5 -31.5t-30.5 -38t-39.5 -38.5t-35.5 -30.5t22 -5t51.5 8.5t53.5 -4.5t55.5 -23t15 -47t-35 -55.5t-52.5 -36t-55.5 -10.5t-24.5 -13.5t13 -28.5t-3 -43.5t-16 -49.5t-26.5 -40.5t-35 -35
t-43.5 -26t-63.5 -19t-73 5.5t-42.5 72t14.5 109t29 60t18 37l-48.5 -6t-55 -6t-57.5 1t-41 9t-19.5 16t-13 36.5t-0.5 37t20.5 14.5t14.5 -14.5t6.5 -34t14.5 -26t42 -9.5t72.5 5.5t63.5 39.5q-96 56 -113.5 73.5t-26 25t-17 29.5t-8.5 35t7.5 27t26.5 31.5t33 22l28.5 9
t19 -8.5t-7 -17.5t-32.5 -9.5t-29.5 -12.5t-11.5 -20.5t19.5 -45t55 -49t86.5 -42l3 11q5 105 11 132.5t21 62t36.5 63t42 40t45 16t53.5 -1.5zM562.5 1990.5q-21.5 -8.5 -41 -25t-30 -44t-19 -68t-17.5 -153.5q79 78 114 130.5t46.5 92t-10 58t-43 10zM519 1656l-17 -12
q55 -20 73.5 -22.5t42 0t48.5 11t31.5 25t-10 26.5t-168.5 -28zM455 1607q-73 -105 -86 -149t11.5 -77.5t69.5 -23.5t70 45.5t13 103.5t-78 101z" />
    <glyph glyph-name="plus" unicode="+" horiz-adv-x="560" 
d="M932 928q31 -9 26 -43q-10 -29 -39 -50l-18 -12l-31 17q-33 3 -73 1l-40 11l-27 -3l-61 3l-66 -7q-28 2 -62 -5l-33 -9l-10 28l-3 24q6 20 18 39l11 17l41 -3l11 -6q32 -3 72 -1l152 -8q30 1 68 -4q31 -2 64 11zM676 1085q9 31 43 27q29 -11 50 -40l12 -18l-17 -31
q-3 -33 -1 -73l-11 -40l3 -27l-3 -61l7 -66q-2 -28 5 -62l9 -33l-28 -10l-24 -3q-20 7 -39 18l-17 11l4 41l5 11q3 32 1 72l8 152q-1 30 4 68q2 31 -11 64z" />
    <glyph glyph-name="comma" unicode="," horiz-adv-x="233" 
d="M97.5 176.5q10.5 -2.5 22 -8.5t20.5 -14t16.5 -22.5t13 -38t3.5 -47.5t-10 -50t-28.5 -59t-37.5 -44t-29.5 -13t-18 9t-6.5 21t21 8t31 18t18 62q-47 1 -66.5 23.5t-21.5 37t-0.5 36.5t10 42t30.5 31t32.5 8.5z" />
    <glyph glyph-name="hyphen" unicode="-" horiz-adv-x="562" 
d="M945 982q36 -4 36 -40q-5 -32 -32 -60l-16 -16l-36 12q-34 -2 -76 -12l-44 4l-28 -8l-64 -8l-68 -20q-28 -2 -64 -16l-32 -16l-16 28l-8 24q4 22 12 44l8 20l44 4l12 -4q35 3 76 12l160 20q31 7 72 8q33 5 64 24z" />
    <glyph glyph-name="hyphen" unicode="&#xad;" horiz-adv-x="562" 
d="M945 982q36 -4 36 -40q-5 -32 -32 -60l-16 -16l-36 12q-34 -2 -76 -12l-44 4l-28 -8l-64 -8l-68 -20q-28 -2 -64 -16l-32 -16l-16 28l-8 24q4 22 12 44l8 20l44 4l12 -4q35 3 76 12l160 20q31 7 72 8q33 5 64 24z" />
    <glyph glyph-name="period" unicode="." horiz-adv-x="334" 
d="M201.5 135.5q13.5 -5.5 25 -17.5t14.5 -26.5t3.5 -34t-1 -32t-13.5 -22t-23 -15t-24.5 -7t-30 0.5t-31.5 12.5t-21.5 27t-2 28.5t11 24t18 25.5t36.5 27.5t38.5 8.5z" />
    <glyph glyph-name="slash" unicode="/" horiz-adv-x="490" 
d="M608 1993q24 -20 43 -50l-46 -257l-227 -1040l-212 -856l10 -16q-24 -46 -76 -61q-25 9 -46 29q299 1005 483 2118q18 93 71 133z" />
    <glyph glyph-name="zero" unicode="0" horiz-adv-x="1337" 
d="M1208 1861q16 -6 72 -52t100 -154t52 -150t28 -301.5t-62 -485t-216 -380.5t-320 -215t-384 42t-280 268t-74 332t56 316t175 318t199.5 228t152.5 110t152.5 80t86.5 38t36 2t54 -4t94 8t78 0zM1094 1787q-18 -8 -32 -20t-44 -32t-56 -44t-35.5 -38t-18 -32t-13 -26
t-8 -18t-29.5 -60t-40.5 -42t-24 26t-3 33.5t18 34t19.5 56.5t52 94q-28 24 -42 16t-33 -16t-34.5 -20t-57 -41.5t-113.5 -107.5t-146 -188.5t-138 -298.5t-27 -461t224 -386.5t379 -33.5t278 254.5t128 332.5t36.5 477.5t-59.5 411.5t-86.5 112.5t-54.5 22.5t-40 -6z" />
    <glyph glyph-name="one" unicode="1" horiz-adv-x="308" 
d="M36 1845l76 -37q-4 -11 6 -32l4 -52l-16 -256l2 -367l-4 -409l-12 -511l-8 -52q-12 -13 -32 -24q-34 0 -52 24l4 691l3 562l5 387l-8 32z" />
    <glyph glyph-name="two" unicode="2" horiz-adv-x="1404" 
d="M659.5 1886q60.5 -9 125 -41.5t116.5 -130.5t63.5 -243t-4 -276.5t-125.5 -350t-125.5 -240t-59.5 -110.5q44 -2 205 -103.5t237 -119t144.5 -21t118 35.5t67.5 43.5t25.5 -7t-2.5 -33t-30.5 -41t-82.5 -45t-166 -7t-207 64t-162 80.5t-173 87q-119 -160 -208 -220.5
t-178.5 -87.5t-158.5 10t-106.5 155.5t53 187t238 88t216 -0.5t102.5 -39q168 319 228 533t23.5 405t-91 273.5t-120.5 111.5t-148.5 -12.5t-128 -119t-59.5 -140.5t-24 -58t-18 14t-5.5 40t38 110t70 120t88 64.5t109 28t116 -4.5zM170.5 447.5q-81.5 -27.5 -100.5 -83.5
t33.5 -131.5t123.5 -67t159.5 88t141.5 200.5q-32 24 -154 22.5t-203.5 -29z" />
    <glyph glyph-name="three" unicode="3" horiz-adv-x="1293" 
d="M903 1917q94 -44 157.5 -219t-199.5 -569q125 -79 219.5 -197.5t109 -228t-19 -212t-114 -205t-133.5 -137t-110 -67t-133.5 -46.5t-114.5 -16.5t-127 11.5t-143 39.5t-82.5 44t-52.5 39.5t-43 44.5t-91 134.5l-19 61l19 19q60 -117 172.5 -210t200 -108.5t160.5 -5.5
t149 40t150.5 112t114 234t13 262.5t-50 154.5t-93.5 116q-22 15 -53 23q-135 -162 -241.5 -174.5t-151.5 16t-13.5 87.5t120.5 122t258 52q27 13 112 179t74 260.5t-41.5 163.5t-89.5 98.5t-120 41t-136.5 -1t-154.5 -52t-186 -170.5l-78 -124q-20 19 -33 47
q152 249 302.5 321t274.5 68t218 -48zM618.5 1057q-32.5 -7 -56.5 -18t-64.5 -34.5t-48.5 -50.5t24.5 -50.5t84 0.5t84.5 66.5t90 97.5q-32 0 -56.5 -2t-57 -9z" />
    <glyph glyph-name="four" unicode="4" horiz-adv-x="1250" 
d="M1099 1919.5q66 -42.5 21.5 -194.5t-120.5 -262t-132.5 -145.5t-168.5 -98.5q-39 -828 -62 -1048.5t-42 -284t-34 -83t-29 -0.5t-17.5 54t1.5 128.5t11.5 466t42.5 734.5q-95 -16 -177 -34t-161 -39t-152 -74l-31 -44l-60 -20q-36 5 -51 32q20 344 38 458t61.5 279.5
t68.5 161t51 -5.5t28 -15t-64.5 -260t-50.5 -490q19 6 101 22l192.5 38t205.5 47q27 122 50.5 187.5t49.5 154t82 200.5t113 131.5t113 33t122 -29zM1012.5 1882q-35.5 -12 -60.5 -22t-60 -56t-69 -133t-116 -392q46 32 87.5 51.5t85.5 67.5t85 110t85 206t21 162t-58.5 6z
" />
    <glyph glyph-name="five" unicode="5" horiz-adv-x="1135" 
d="M1016 1838q28 -8 60 -29l12 -10l-8 -7q-13 -24 -40 -34q-26 7 -56 9l-74 -7q-254 -47 -356 -61q-99 -8 -162 -16l-11 -61l-9 -239q-1 -37 -8 -88l-12 -128l28 20q258 95 375.5 77.5t198 -104t127.5 -216.5t51 -242.5t-14.5 -240.5t-86.5 -258t-241 -256t-348 -102.5
t-261.5 97t-116.5 153.5q14 19 36 29q74 -137 194 -196t225 -48t188.5 70.5t193.5 269.5t104.5 525.5t-144 409t-313.5 31.5t-200.5 -94.5t-33 -54.5t-27.5 -53l-49 -25q-9 5 -20 15l8 69l17 129q10 33 16 78l24 157l4 83q3 38 12 84l16 156l-4 20l8 49h12l33 5l48 -20
q29 -12 64 -19h60l72 5l192 24l160 15q27 11 56 29z" />
    <glyph glyph-name="six" unicode="6" horiz-adv-x="1178" 
d="M1041.5 1939q4.5 -19 -135.5 -88t-255.5 -180.5t-230.5 -328t-147.5 -293.5t-58 -196.5t-28 -192t4.5 -137.5t26 -117q8 -23 23 -47q191 318 311.5 435t252.5 133.5t223 -40t107.5 -180t-22.5 -261t-186 -281t-322 -143.5t-279.5 47.5t-193.5 165.5t-103 294t57.5 407
t232 454.5t351 361t279.5 172t93.5 15.5zM473.5 613.5l-172.5 -305.5l-10 -37q82 -108 154 -152t196.5 -31.5t220.5 105t133 204t20 263.5t-142 186.5t-237.5 -53.5t-162 -179.5z" />
    <glyph glyph-name="seven" unicode="7" horiz-adv-x="1294" 
d="M1150.5 1950q59.5 -1 102 -39.5t47.5 -79t-2.5 -67t-34 -58t-103 -59.5t-195.5 -30l-24 -74q-73 -272 -160.5 -1056.5t-92.5 -818.5t-22 -58t-28.5 -23.5t-42.5 19.5t-31.5 33.5t4.5 29t109.5 862t158.5 1070.5q-347 21 -503.5 8.5t-167.5 -31.5t-16 -31.5t-12.5 -17.5
t-24.5 0t-23 14.5t-9.5 21.5t-13.5 36.5t-2 41t31.5 19.5t79.5 9t102.5 7t189.5 -6t396 9q82 105 155 187.5t132.5 81.5zM1169 1861q-48 -4 -76 -34.5t-121 -149.5q82 -7 157 9.5t104 60.5t6.5 81t-70.5 33z" />
    <glyph glyph-name="eight" unicode="8" horiz-adv-x="997" 
d="M745 2036q9 -4 20 -4t33 -8t44 -18l42 -20t40 -33t46 -103t19.5 -145.5t-29.5 -110.5t-75.5 -119.5t-103.5 -138t-115 -156.5l-209 -307q34 -53 91 -164t108.5 -225.5t51 -272t-163.5 -251t-270.5 -58.5t-154.5 98.5t-58.5 162.5t26 226t259.5 456q-166 295 -180 343
t-12 126t16 126t52 116.5t104 144t153 114.5t192 24t197 -111q6 -18 43 -47q17 56 15.5 90t-16 91.5t-46.5 78t-64 26t-66 7.5t-38 18t-2 16.5t4 4t20 15.5t27 8zM596 1788q-38 -8 -98 -42t-106 -98.5t-76 -170t4 -245.5t102 -299q150 214 215 295.5l141.5 179.5t105 173
t27.5 99l-46 -21q-23 -1 -63 46t-104 69t-102 14zM382 776q-64 -96 -132 -266t-78 -276t8 -166t46 -94t85.5 -40t126 20t114.5 86.5t45.5 118.5t-20.5 157t-48.5 168.5t-69 155.5t-77.5 136z" />
    <glyph glyph-name="nine" unicode="9" horiz-adv-x="1040" 
d="M838.5 1935.5q110.5 -20.5 179 -103.5t96.5 -246.5t12 -309t-62 -356t-120.5 -339.5t-140.5 -213t-168.5 -172t-205 -148.5t-121 -67t-36.5 -6.5t-25 26t32 39.5t103 49.5t223 201t221 337t152 612q-79 -60 -194 -111.5t-195 -91t-180 -50.5t-195.5 28.5t-118.5 127.5
t13.5 215.5t105 235.5t143.5 180.5t154.5 112.5t148 55t179 -5.5zM462.5 1793.5q-57.5 -48.5 -127 -144t-99 -171.5t-39 -146.5t20.5 -138.5t109.5 -105.5t166 -17t232.5 103.5t199 139.5t47.5 150t-47.5 196t-84 140.5t-86.5 64.5t-139.5 2t-152.5 -73z" />
    <glyph glyph-name="colon" unicode=":" horiz-adv-x="248" 
d="M104.5 1079.5q22.5 0.5 36 -6t15.5 -31t-12 -40l-21.5 -23.5t-18 -14t-22 -5.5t-24 4t-20.5 13.5t-10 24t0.5 23.5t8 20t25.5 22.5t42.5 12.5zM146 703q20 -16 26 -27.5t10 -26t-8 -36.5t-40 -30t-52 4t-27 26t-4 28t6 23.5t16 18t31 22.5t42 -2z" />
    <glyph glyph-name="semicolon" unicode=";" horiz-adv-x="332" 
d="M282.5 762q12.5 -9 22 -25t14.5 -49t-3 -47t-19.5 -25t-35.5 -16.5t-34 -3t-20.5 10t-21.5 19.5t-16 39.5t0 36l12.5 21t19 22t40.5 18t41.5 -0.5zM262 488.5q16 -3.5 28 -21t18 -56t2 -82t-14 -80.5t-28 -69t-38 -57t-44 -48t-39.5 -21.5t-24 18.5t-3 32.5t19 21.5
t33.5 24.5t33.5 38t20.5 60.5q-11 43 -33.5 49.5t-36.5 24.5t-16 40.5t6 34t15 25t20 27.5t39 28t42 10.5z" />
    <glyph glyph-name="semicolon" unicode="&#x37e;" horiz-adv-x="332" 
d="M282.5 762q12.5 -9 22 -25t14.5 -49t-3 -47t-19.5 -25t-35.5 -16.5t-34 -3t-20.5 10t-21.5 19.5t-16 39.5t0 36l12.5 21t19 22t40.5 18t41.5 -0.5zM262 488.5q16 -3.5 28 -21t18 -56t2 -82t-14 -80.5t-28 -69t-38 -57t-44 -48t-39.5 -21.5t-24 18.5t-3 32.5t19 21.5
t33.5 24.5t33.5 38t20.5 60.5q-11 43 -33.5 49.5t-36.5 24.5t-16 40.5t6 34t15 25t20 27.5t39 28t42 10.5z" />
    <glyph glyph-name="equal" unicode="=" horiz-adv-x="530" 
d="M857 1011q27 -8 25 -44q-7 -32 -30 -56l-14 -15l-27 16q-28 2 -61 -4l-34 9l-22 -5l-51 -2l-54 -12q-23 0 -52 -10l-26 -12l-10 29l-4 25q4 22 13 43l8 19l34 -1l9 -5q28 -1 60 4l127 3q24 4 57 0q26 1 52 18zM852 855q27 -8 25 -43q-7 -32 -30 -57l-14 -14l-27 16
q-28 1 -60 -4l-34 9l-23 -6l-51 -1l-54 -13q-23 1 -52 -9l-26 -12l-10 29l-4 25q4 21 13 42l8 19h34l9 -5q28 -1 61 4l126 3q25 3 57 0q26 1 52 17z" />
    <glyph glyph-name="question" unicode="?" horiz-adv-x="974" 
d="M738 1885.5q37 -1.5 67 -10.5t65 -27.5t82.5 -77t64.5 -141t-7 -165t-59 -156t-79.5 -146l-88.5 -148.5t-68.5 -152t-37.5 -161.5t-4.5 -102.5t-4 -30t-25.5 -22t-23.5 -14.5t-15.5 3t-10 29t3 124t47.5 205t101 230t93.5 204t51 167t6 163t-53.5 110.5t-99 52t-140 -8.5
t-184.5 -99.5l18 -34q18 -33 38.5 -86.5t9 -116.5t-62.5 -125.5t-125.5 -62t-106.5 21.5t-49 67.5t0 114.5t53.5 112.5t71.5 94.5l-7 12l-63.5 83.5t-16.5 33t19 16.5t46.5 -8.5t98.5 -68.5q50 19 104 47t109 44.5t100 23.5t82 5.5zM324 1642q-37 -40 -53.5 -61.5t-35 -59
t-20.5 -79.5t34 -80.5t78.5 -24t74 71.5t14.5 97.5t-33.5 64.5t-58.5 71zM631.5 185.5q13.5 -5.5 25 -17.5t14.5 -26.5t3.5 -34t-1 -32t-13.5 -22t-23 -15.5t-24.5 -7t-30 0.5t-31.5 12.5t-21.5 27.5t-2 28.5t11 24t18 25.5t36.5 27.5t38.5 8.5z" />
    <glyph glyph-name="at" unicode="@" horiz-adv-x="955" 
d="M856 1270q48 -3 98 -28t83 -73t35 -128.5t-30 -222t-50.5 -186t-22.5 -55t-10.5 -22l-18.5 -32t-32 -41.5q1 -8 6 -17q7 -24 7 -37.5t-56.5 -85.5t-118 -109.5t-107.5 -57.5t-142.5 -26t-177.5 50.5t-106.5 96t-36.5 99.5t-4.5 146.5t27.5 155.5t65.5 164.5t97.5 161
t106 110t92.5 68.5t89 39.5t104 24t102.5 5.5zM621.5 1182q-68.5 -35 -120 -71t-117 -126.5t-99.5 -200.5t-33.5 -216t44 -179t131 -113.5t151 -38.5t108 21.5t75 46t42.5 38.5t31 39.5t24 38t0 12t-20.5 -8.5t-34.5 -15.5t-34 -2t-29 14t-58 58.5q-24 -24 -62 -58.5
t-94.5 -38t-85.5 15.5t-49.5 46.5t-25 101.5t36.5 171.5t86 147t97 71.5t199 -12q35 13 53.5 10t25 -8.5t12 -14t7.5 -24t-3.5 -41t-44.5 -123t-51 -111t-20.5 -29t-10.5 -33t8.5 -31t22.5 -23.5t32.5 -7t32.5 13.5t42.5 51.5t51 90.5t38 123.5t18 161.5t-31 151.5
t-88.5 95.5t-122.5 36t-134 -30.5zM569 875q-33 -27 -59.5 -71.5t-51.5 -126.5t-6.5 -147.5t69.5 -81t123 50.5l17 34q-11 177 17 248t48 98q-14 11 -24 14t-55 6t-78 -24zM790 857.5q-11 -8.5 -18.5 -24t-24.5 -82.5t-17 -115l3 -7l14 7q31 37 65.5 137.5t11.5 96.5
t-34 -12.5z" />
    <glyph glyph-name="A" unicode="A" horiz-adv-x="1795" 
d="M1292 2024q27 -2 52 -17l30 -37q-236 -70 -497 -338t-433.5 -666t-222.5 -678t16.5 -435.5t154 -165.5t295.5 133t301 310q-20 142 -25 336t66.5 472t153 473.5t188 312t169.5 121t95 -22t34 -172t-59 -352t-178.5 -497.5t-289.5 -606l-31 -67q164 -193 219 -206
t132 26.5t142.5 139t94.5 119.5t50 0t-81.5 -171.5t-279 -201t-360.5 201.5q-18 -12 -122.5 -107t-167.5 -137.5t-180.5 -112t-257.5 -60t-228.5 162.5t-67 394t191.5 616.5t458.5 695t607.5 496.5zM1370.5 1511q-80.5 -154 -150 -344t-122 -462.5t-9.5 -468.5
q160 301 233 474.5t137 342.5t108.5 342.5t31 268t-80.5 48t-147.5 -200.5z" />
    <glyph glyph-name="B" unicode="B" horiz-adv-x="1498" 
d="M2401 2043q47 6 62 -5q12 -9 28 -14q8 -15 17 -35q42 -253 55 -518l-4 -13l3 -35l-4 -13l18 17q10 13 18 34q10 14 19 34l25 25q8 16 19 34l22 34l97 105l29 21l25 25q16 5 32 16l32 16q68 29 121.5 -37.5t59.5 -145t-3 -123t-32 -103t-30 -81.5l-18 -34q-8 -20 -19 -38
l-4 -22l56 -7l32 8l66 -16l10 -1v4l63 -20l31 -19l31 -10l28 -23l31 -18l27 -28q90 -77 115.5 -238.5t-7.5 -299.5t-96 -229.5t-117.5 -143t-137.5 -114t-240.5 -85.5t-317.5 58q-10 12 -20 31q3 19 15 35l35 11q110 -81 199.5 -85.5t182.5 33t194 163t144.5 294.5t26 287
t-65 197t-174 127t-209.5 9q-115 -78 -172.5 -133t-139.5 -116l-16 -111q-25 -339 -50.5 -511t-77.5 -283.5t-174 -222.5l-57 -41l-46 7l-31 10l-28 -3l-38 19l-13 44l-17 31q-9 18 -16 40l-2 53l4 34l-3 14l50 167q9 18 85 240.5l135 385t103.5 265.5t94.5 246l-14 287
q-33 301 -65 480zM2742 1578l-102 -131l-65 -103q-2 -85 -4 -120l-11 -312q154 117 227 181t100 90.5t44.5 66.5l57 132.5t-33 221.5t-213.5 -26zM2342 819l-11 -43l-19 -34l-12 -43l-95 -276q-153 -408 -145 -560q43 -69 104 -31.5t114 145.5t122 473l72 717
q-40 -93 -130 -348z" />
    <glyph glyph-name="C" unicode="C" horiz-adv-x="1229" 
d="M1167 1844q-243 -23 -432 -139.5t-297.5 -335.5t-181.5 -523t-59.5 -610t140.5 -447t307 -155.5t428 224.5l119 172q20 6 45 3l21 -24l-12 -29l-34 -48q-13 -25 -34 -47l-72 -93q-158 -136 -232.5 -186t-164.5 -68t-190 -0.5t-216.5 84.5t-204.5 263.5t-63 636.5
t255.5 821.5t524 468.5t332 84.5t21.5 -52.5z" />
    <glyph glyph-name="D" unicode="D" horiz-adv-x="1438" 
d="M2002 1984l49 -1l22 -48l-12 -11l-9 -19q-18 3 -42 1q-113 -131 -149 -242.5t-44.5 -321t3.5 -513.5q47 161 85 269.5t101.5 263.5t155 297.5t178 190t141 60.5t133.5 -12.5t192 -152t178.5 -497t-59.5 -730t-279.5 -511.5t-339 -249t-278.5 -118.5t-179 -44.5
q-5 -27 -26 -72.5t-55 -79.5t-83.5 -46t-74 32t-26.5 170.5t9 277t32 252.5l41.5 210t81.5 322l-4 65l-5 13l-6 82l-7 38l2 40l-5 12l3 102l-7 29v207l-4 12q-1 40 4 84l-2 83q2 32 2 75l10 64q4 32 13 72l17 69q10 30 28 58l29 57q15 24 40 47l37 46zM2265 1718.5
q-65 -58.5 -101 -124t-98 -201.5t-206 -578l-22 -75q10 -342 18 -514t1 -546q190 2 426.5 141.5t380.5 419.5t195 595t-27 566.5t-152 319.5t-136 90.5t-138 -6.5t-141 -87.5zM1625 -242.5q0 -236.5 20.5 -263.5t48.5 4t44.5 81.5t26.5 355.5q7 237 2 653
q-142 -594 -142 -830.5z" />
    <glyph glyph-name="E" unicode="E" horiz-adv-x="1268" 
d="M1230 1788l36 -16l32 -20q11 -11 12 -28q-6 -18 -16 -36l-36 8q-8 15 -24 28q-28 24 -46 32t-100 -10t-100 -26t-68 -38t-104 -78t-94 -88t-86 -122t-80 -154t-50 -134t-16 -84t10 -62t36 -68t42 -38t72 -30t88 -26t36 -4t8 2t26 2t96 30t81.5 33t18 10t26.5 15t24 14.5
t28 11.5q13 -11 24 -28q-5 -19 -16 -40q-4 -18 -20 -32q-14 -9 -23 -10.5t-29 -7.5t-34 -14t-54 -20t-48 -17t-18 -8t-28 -11t-27.5 -9.5t-20 -6t-48.5 -18.5t-98 -58t-108 -100l-72 -86t-74 -110t-54 -102t-28 -102t-30 -124t9.5 -149t70 -140t108.5 -59t136 -28t203 44.5
t242 172t189 264.5t140 323l32 12q13 -9 24 -24l12 -40l-20 -24q-186 -380 -313 -527t-255 -214t-216 -87t-159.5 -25.5t-164.5 40t-131 151.5t-51.5 180.5t14.5 212.5t110 253.5t116 157.5t120 106t118 84q13 5 20 20l-40 12q-51 0 -81.5 4t-71.5 21.5t-69 69.5t-40 132
t30 202t82 186t93.5 131.5t114 118t153.5 101t109 60.5t112 36t136 24t72 -22z" />
    <glyph glyph-name="F" unicode="F" horiz-adv-x="1239" 
d="M1730 1936.5q40 -56.5 38.5 -103.5t-43.5 -103.5t-129 -92.5t-294 -36q-119 -432 -121 -891q34 1 69 13l26 13l43 -18q13 -28 13 -69l-47 -21q-11 3 -22 13l-17 4l-43 -4l-13 -5q-13 -33 -17 -82q-61 -697 -139 -891.5t-167 -250t-147.5 -50.5t-116 65.5t-65.5 89.5
t-25 63q-6 15 -9 35q63 -45 107.5 -114.5t107.5 -80t117.5 86t96 243t82.5 589.5l24 262q-49 -7 -129 -47l-52 -13l-18 57l5 8l43 9l73 26l70 35q42 560 165 932q-99 -18 -223 -18t-249.5 -28.5t-167 -90t-61.5 -93.5l-21 -65q0 -33 8 -77l48 -48q33 -15 78 -21
q33 -9 73 -26l9 -30q-16 -18 -35 -30l-151 47q-32 11 -69 30l-43 56q-7 35 -22 78l5 17l-9 48l9 12q15 32 26 74q16 27 47 51l52 48l60 39q217 51 479 59l153 14q16 30 112.5 150t241 154.5t184.5 -22zM1312 1656q413 -8 389 219q-172 67 -389 -219z" />
    <glyph glyph-name="G" unicode="G" horiz-adv-x="1174" 
d="M2183.5 1785.5q124.5 -37.5 111 -72t-32.5 -22.5t-36 26.5t-88 29t-159.5 -13.5t-202.5 -121t-206 -254.5t-144.5 -282.5t-60 -144.5t-18 -42t-50.5 -141.5t-53 -225t-13.5 -168t21.5 -145t80 -126t168.5 -55.5t299.5 127.5t245.5 250.5t70.5 136.5l25 37v44l31 38l13 13
l22 -11q18 -16 29 -41q-1 -17 -11 -36q-6 -35 -25 -81q-65 -1217 -294.5 -1394.5t-362.5 -162t-210 106t-108.5 181t-36.5 111.5t9.5 64.5t42.5 19.5t36.5 -64t20.5 -65.5t27 -70t80.5 -128t130 -93t157.5 30.5t183.5 166t113.5 272.5t33.5 295t27.5 544.5
q-203 -208 -366.5 -312t-299 -114.5t-218 69.5t-107.5 200t-18.5 228t54.5 252t51 154.5t10.5 20.5t24.5 52t40.5 80t33.5 59t54.5 102.5t85.5 134l133.5 172.5t176 199t219 143t260 26.5z" />
    <glyph glyph-name="H" unicode="H" horiz-adv-x="1655" 
d="M1830 1930.5q84 3.5 129.5 -108.5t26.5 -189.5t-109 -217t-425 -302.5q-41 -467 -40 -777t81 -411t137 -99t67 21t32 25t30.5 0t14 -16t-6.5 -28t-62.5 -34.5t-132.5 4t-147 91t-101.5 199t-30.5 475t35 505.5l-177 -43l-419 -134l-14 -120q-132 -822 -377 -1110
q-108 -99 -40 8t124 310t162 784l23 88q-116 -17 -246.5 -94.5t-135 -88t-12 -17.5t-47.5 -75q-15 6 -21.5 13t-10.5 23t0 22t20 18t30 26t58.5 45l84 60t245.5 117l34 14l10 54q54 491 53 649.5t1 164.5t10.5 11t18 6t42.5 -1t40.5 -9t12 -18t1 -243t-51.5 -580l53 17
l526 165q11 13 16 28q51 266 81 358.5t61.5 156.5t78 125t115.5 95t153 37.5zM1673 1720q-30 -34 -84 -146t-110 -320l-29 -86q92 33 237.5 141t199.5 208t40.5 167.5t-58 96.5t-105.5 1t-91 -62z" />
    <glyph glyph-name="I" unicode="I" horiz-adv-x="1355" 
d="M1383.5 1696.5q26.5 -182.5 -6 -513t-87 -621t-226.5 -652.5q67 -105 100.5 -134t57.5 -46.5t56 -31t77.5 -12t64 27t41.5 50t31 27.5t20 4t12 -11t-12.5 -34t-34 -45.5t-43.5 -35.5t-51.5 -16t-64 -2t-91 20t-132.5 93q-14 19 -34 36q-17 16 -45 48q-35 -53 -89 -92.5
t-217 -81t-384.5 52t-267 129.5t-52 93.5t101.5 35.5t315.5 14.5t260.5 84t102.5 -25.5t-313.5 -108.5t-280.5 -90t226.5 -86t270 6.5t236 166l-19 60q-201 460 -222 812t40 644t268 435t286 62.5t105.5 -263zM979.5 1798.5q-183.5 -213.5 -214 -475.5t-4 -557t99.5 -484.5
t109 -305.5q192 547 227.5 804.5t55 490t-35 487t-238 41z" />
    <glyph glyph-name="J" unicode="J" horiz-adv-x="1438" 
d="M1605.5 1874q22.5 -2 44.5 -7.5t11 -28t-20 -30t-26 -16.5t-69 -64.5t-56 -509t-83.5 -907.5t-229 -642.5t-262 -243t-280.5 -73.5t-283.5 13t-187 98.5t-82.5 87t-7.5 30t43.5 13.5t112 -69.5t176 -117.5t283 3.5t269.5 118t139.5 154.5t101 252t87.5 432t62.5 636.5
t28 532.5t19.5 180.5t30 44.5t71 64t43 32.5t-1 -2.5t29.5 13t36.5 6z" />
    <glyph glyph-name="K" unicode="K" horiz-adv-x="1164" 
d="M1080.5 1798.5q16.5 -11.5 27.5 -40t21.5 -77t-9 -130t-41 -161.5t-110 -253.5t-208 -329.5t-234.5 -242l229.5 -280t194 -213t121.5 -96t93.5 -71t126.5 -60.5t216 -4.5l82 -20q-70 -36 -113.5 -51.5t-94.5 -18.5t-104.5 0t-134 51.5t-178 146l-161 156.5t-130 135
l-121.5 141.5l-98 114.5q-17 -20 -25 -58q-29 -242 -112 -563.5t-232 -597.5l-29 -23q-23 3 -50 16l-58 42l17 14q57 70 132.5 247t228.5 836l-2 26q-136 -43 -192 -26t-82 50t-32 73t13 118t81 121.5t119 40t130 -70.5l8 25q21 591 -30 926l-1 46l105 14q28 -22 40 -61
q22 -311 2 -862l-3 -188q75 41 124 89.5t124.5 152.5t139 227t111.5 248.5t64.5 212.5t14.5 108t-8 45t-13 40.5t8.5 31.5t32 3.5zM257 664q-21 0 -61 -14.5t-60 -37.5t-33 -75.5t28 -68.5t86 -2t73.5 29.5t50.5 44.5l13 77l-14 11q-13 25 -37.5 30.5t-45.5 5.5z" />
    <glyph glyph-name="L" unicode="L" horiz-adv-x="683" 
d="M2755 1842q70 23 10 -36t-133 -206t-93 -476t-48.5 -700t-82.5 -630q223 -103 342 -147.5t271 -80t238.5 -10t120 95.5t56.5 85q26 -2 47 -25q-2 -25 -12.5 -65t-52.5 -88t-159 -81.5t-347 38t-512 214.5q-19 -124 -104.5 -208t-180.5 -52t-80 143l30 59l55 61l64 31
l100 23q33 112 61.5 443l74.5 905.5t335 706.5zM2120 -401q17 -67 64.5 -36.5t87.5 170.5q-137 -6 -152 -134z" />
    <glyph glyph-name="M" unicode="M" horiz-adv-x="2072" 
d="M179 1444q48 -16 130 -165l94 -138q250 474 394.5 535.5t251.5 -179.5t76 -900q110 689 219.5 865.5t184.5 219.5t163.5 26.5t153.5 -123t63 -437.5t-44.5 -519t-65.5 -469.5t64.5 -355t158.5 -16t92.5 162.5t30.5 83.5t9.5 -51.5t5.5 -92t-44.5 -138.5t-158.5 -68
t-197 99t-84.5 312t37 482.5t48 563t-55 418t-182 14t-180.5 -326.5t-111 -492t-84 -435.5t-92 -170q-27 179 -41 467.5t-34.5 538t-99 337t-178.5 -17t-256 -429.5q53 -207 120 -504.5t62.5 -502t-25.5 -322.5t-73.5 -268.5t-109 -224t-136.5 -102.5t-140.5 18.5t-93 176.5
t-2.5 339.5t74 403.5t64.5 296.5t56 236.5t97.5 459q-54 136 -207 250q7 92 45 143zM375 929q-65 -324 -92 -440.5t-66 -302.5t-82 -413t-26.5 -357.5t78 -141.5t100 22t87.5 126t90.5 298.5t40 323.5t-27 326.5t-102.5 558.5z" />
    <glyph glyph-name="N" unicode="N" horiz-adv-x="1581" 
d="M469 1141q114 133 132 171.5t135.5 177.5t178.5 182t103.5 54.5t88 13.5t93 -9.5t144 -71t158 -220t78.5 -339.5t-60 -345t-144 -428.5t-7.5 -426t151.5 -161.5t139 118l57 -54l-36 -85q-32 -14 -86 -28.5t-135.5 7t-149.5 121.5t-73.5 267.5t105.5 505.5t101.5 567.5
t-106.5 343t-142.5 149t-106 25.5t-110 -42.5t-138.5 -122t-148 -179.5t-191 -275q206 -596 231 -796.5t11 -346.5t-46.5 -227t-53.5 -119.5t-92.5 -107t-174 -91.5t-162 -7.5t-116.5 81t-85 238t19 373.5t97.5 364t115.5 297.5t136 309.5q-73 381 -127 533q13 62 62 12
t154 -429zM411 942l-111 -236q-238 -604 -230.5 -883t76.5 -333t160.5 -25.5t145 76t107 149t55.5 330t-203 922.5z" />
    <glyph glyph-name="O" unicode="O" horiz-adv-x="1356" 
d="M1433 1643l40 -4q21 -8 40 -24q-91 -115 -181 -191q70 -16 138.5 -195.5t70 -385.5t-35.5 -440.5t-168.5 -510.5t-344 -373.5t-434 -30.5t-290 338.5t-1 571t179.5 533.5t231.5 369.5t201.5 170.5t194 39t195 -36q86 57 164 169zM872 1368q-56 -40 -104 -88
q-6 -21 21 -76.5t91 -60.5t146 58t194 211q-28 19 -160 7.5t-188 -51.5zM1296 1373l-131 -167t-101 -109.5t-110.5 -71t-129 -9t-122.5 180.5q-141 -204 -191 -337t-91.5 -358t6 -521.5t130.5 -381.5t231.5 -82t280 179t173.5 300t98.5 346t75 379t3.5 303.5t-41.5 213
t-80.5 135.5z" />
    <glyph glyph-name="P" unicode="P" horiz-adv-x="1107" 
d="M1249.5 1754q60.5 -218 -32.5 -456t-203.5 -305t-175.5 -85t-156 -22.5t-107 9.5t-13.5 34t50.5 9t131.5 -3.5t184 64.5t140.5 188t52.5 219t6 179t-28 172t-99 149t-179.5 35.5t-209 -190.5t-155 -308.5t-56.5 -228.5t-6.5 -153t28.5 -197l68.5 -312.5t54.5 -333.5
t8 -309t-44 -281t-78.5 -152.5t-77.5 -49.5t-76 -13t-58.5 64.5t-25.5 158t2.5 268.5t29 425.5t44.5 421t29.5 361.5q-117 465 -188.5 553.5t-95.5 124.5l4 37l37 9l9 -9q36 -1 56.5 -18.5t59 -72.5t74.5 -190.5t39 -159t6 -41.5t19 -59l12 -53q28 98 68 218.5t118.5 261.5
t135.5 186.5t114 78.5t156 47t183 -19.5t144.5 -251.5zM323 767q-21 -221 -28 -358t-25.5 -411t-17 -364.5t23 -107.5t41 -14.5t45 29.5t44 83.5t19.5 286.5t-33 448.5t-69 407.5z" />
    <glyph glyph-name="Q" unicode="Q" horiz-adv-x="1793" 
d="M2524 1840q60 -20 77 -23.5t38 -4t49 -14.5t52 -34t66 -60t76 -93.5t63.5 -152t38 -279.5t-53 -417t-155 -398.5t-186 -282t-173 -184l-130.5 -106.5q72 -37 232.5 -131t342 -125.5t431.5 64.5t323 180.5t87 110.5t21.5 31.5t18 10t20.5 -1.5t16.5 -12.5t12 -16
t1.5 -19.5t-42 -56t-237.5 -181.5t-411.5 -162.5t-406.5 36t-320 127t-178.5 83l-56 -48q-177 -97 -236.5 -110.5t-95.5 -19.5t-70 -10t-66 2t-92 30t-69.5 72t16 89t65 71t115 55t144.5 28.5t135 1.5t226 -57l48 52q188 160 258 268t123.5 226.5t123.5 324t94 430.5
t-5.5 335.5t-69.5 159t-68 62.5t-58 18t-43.5 2t-28 -8l-28 -11.5t-28 -14l-40.5 -24.5t-37 -24.5t-22 -20t-21 -20.5t-20 -22t-30 -35t-28.5 -35t-12 -30t-5.5 -33t0 -22t12 -12t32 -24t40 -10t30 4t16 -10t2 -20t-14 -18t-28 -7.5t-36 -4t-44 17.5t-32.5 29.5t-16 26
t-16 26.5t-10 28t-1.5 32t6 36t52 100t74 110.5t82 68.5q-122 -8 -219 -47t-234 -150.5t-263.5 -259t-216 -325t-129.5 -306t-50 -284t25 -322.5t104 -212t71.5 -51.5t4 -16t-5 -11.5t-12 -10t-74 38.5t-114 156t-72 304t0 344t59 271.5t73.5 206t134 226t333 310t413.5 192
t233.5 4zM1932 -187.5q-99 17.5 -177.5 16.5t-127.5 -55t-11.5 -88t85.5 -55.5t102 -18t106 25.5t119.5 58.5t95.5 63.5q-93 35 -192 52.5z" />
    <glyph glyph-name="R" unicode="R" horiz-adv-x="1260" 
d="M1235 1751q68 -48 96 -217.5t-48 -354.5t-154 -300t-170 -233q304 -17 282 -310.5t24 -504.5t166 -321.5t180 -80t86 97.5l41.5 109.5t46 41.5t28.5 -18.5t-40 -91.5l-51 -101t-66 -56.5t-105 -40t-152 30.5t-194 221.5t-58 519.5t-72 376t-136 31t-38 -4.5t-19 1t-18 -4
t-277 -204.5q-16 -156 -14 -288.5t-18 -352t-72 -315t-118 -163t-108 -13t-52 71.5t-26 84.5t-4 206.5t50 389t76 404.5t81 454.5q-28 235 -62 406.5t-51.5 276t-31.5 117.5t-10 35t40 8.5t66 -61t74 -228t54 -254.5t17.5 -42.5t12 37t82.5 170.5t220 293.5t258 176.5t184 0
zM757 1372.5q-130 -178.5 -254 -417.5q56 -361 62 -435t-2 -109q164 109 250 191.5t174 219.5t140 263.5t60 215t-8 178t-42 137.5t-138 -8.5t-242 -235zM365.5 259q-36.5 -175 -65 -355.5t-37.5 -352.5t-2 -209.5t18 -72t40 -23t62 121t51 255t24 491t-14 479t-30 -12.5
t-46.5 -321z" />
    <glyph glyph-name="S" unicode="S" horiz-adv-x="912" 
d="M630.5 2045q58.5 -9 154.5 -61t143.5 -104t56 -60t3 -14t-37.5 11.5t-103.5 82.5t-153 86.5t-224 -3t-290.5 -180t-162 -307t41 -274l119 -258.5t290 -394.5t356.5 -510t136.5 -408t-52 -316.5t-148 -273q53 1 76.5 6t6.5 25.5t-7 6.5t4.5 -21t11 -26.5t10 -25
t-19.5 -4.5t-33.5 1t-77.5 -7q-77 -133 -136 -188.5t-123.5 -96.5t-147 -64.5t-170 -23.5t-104.5 64.5t42.5 140t144 125.5t119.5 63l88 32.5t198 2.5q67 107 100.5 179t45.5 224.5t-30 322t-130.5 344t-180.5 304.5t-177 236.5t-165.5 220t-164.5 265t-84.5 302.5t85 278.5
t197 179.5t161 72t106 32t112 17t114 -4zM454.5 -970q-57.5 -16 -110.5 -48.5t-79 -57t-48.5 -59.5t-17.5 -91.5t31.5 -75t106 27.5t163.5 129t115 169q-103 22 -160.5 6z" />
    <glyph glyph-name="T" unicode="T" horiz-adv-x="1224" 
d="M1826 2034.5q40 -7.5 57 -35t19 -64.5t-9 -72t-26 -66t-59 -79t-72.5 -65.5l-41.5 -25.5t-30.5 -15.5t-39 -18l-75.5 -36.5q-8 -75 -34.5 -452.5t-74 -852.5t-100 -669.5t-102.5 -302.5t-107 -159.5t-126 -83.5t-203.5 -61t-159 -5t103 44t246.5 97t173.5 206.5
t102.5 621t68.5 769t35.5 462t44 371.5q-230 23 -460 36t-303 -29.5t-83.5 -57l-19 -27t-13 -44t11 -61.5t41.5 -53q35 -10 35 -48l-26 -30l-31 8q-32 10 -70 14q-44 48 -52.5 60.5t-15.5 52t13 88t44 68.5t34.5 31.5t101 46t308.5 26.5t474 -14q30 7 44 44q48 140 63 168.5
t52.5 83t94.5 92t92 41.5t75 -3.5zM1759 1944.5q-33 -17.5 -61 -44.5t-66 -84t-74 -206q50 12 87 31t85 64t75 79.5t33.5 90.5t-20 71.5t-59.5 -2z" />
    <glyph glyph-name="U" unicode="U" horiz-adv-x="1511" 
d="M1311 1574q33 -42 37 -82t-10 -128t-110 -380l-136 -412q12 -180 46 -384t65.5 -282.5t60.5 -109t73.5 -46.5t80.5 -14.5t48 17t21 11.5t13 -12t4 -18t-8 -28t-32 -20t-93.5 4t-115.5 41t-76.5 67t-79.5 122.5t-95 483.5l-164 -306t-116 -174t-114 -122t-125.5 -71.5
t-151 -15t-201.5 88.5t-155 247.5t-4 366t81.5 342.5t156 337t182.5 279t93 88t24 -18t-31.5 -51t-99.5 -121.5t-95.5 -178t-85 -230t-63 -413t8.5 -394.5t70 -184t102 -88t120.5 -26t162.5 110t177.5 257.5l131.5 256t88 188.5q-12 84 -31.5 207.5t-3 308.5t40.5 259.5
t82 136t126 97t101 -6.5zM1174 1408q-37 -63 -53.5 -141.5t-26 -183.5t-12.5 -360l57 158q93 276 125.5 417.5t28 188t-43 15.5t-75.5 -94z" />
    <glyph glyph-name="V" unicode="V" horiz-adv-x="1185" 
d="M1904.5 1983.5q3.5 -22.5 -1 -40t-36 -6t-150 -70.5t-188.5 -180t-163.5 -360t-138 -618t-77.5 -554.5t-57 -318t-69 -203.5t-102.5 -152t-96.5 -103t-52 -44.5t-32 -15t-34 1.5t-28 21t-28.5 127.5t-27 351.5t-66 608.5t-114.5 557.5t-93 202t-56.5 12.5t-45.5 -18.5
t-49 -42t-35 -13t-7.5 23.5t4 23t17 21.5t66.5 89.5t105.5 80.5t107 -46.5t76 -132.5t70.5 -369.5t69 -589t17.5 -420t19 -258t35.5 -141.5t54 47.5t100.5 131.5t124.5 291.5t98.5 524t66 575.5t93 470.5t139.5 324t172.5 166.5t162.5 67t107 5.5t42.5 -28z" />
    <glyph glyph-name="W" unicode="W" horiz-adv-x="2305" 
d="M2796.5 1789q29.5 -37 13.5 -60t-23 -16t-36.5 20.5t-66.5 6.5t-55.5 -25t-87.5 -114.5t-161 -251t-204.5 -455.5t-202.5 -499t-145 -349.5t-87 -202t-41.5 -60.5t-36.5 -27q-30 -8 -65 -9q-83 2 -129 77t-62 139t-34.5 128.5t-68.5 298.5l-19 -23l-153.5 -342t-67 -223
t-91.5 -405l-19 -14l-73 10l-23 13q36 309 4 750t-71 567.5t-131 281t-133.5 195.5t-119.5 73.5t-140 21t-116.5 -49t-74 -140.5t3.5 -142t72.5 -67.5t80.5 -30t35.5 -8t7 -16t-36.5 -18.5t-48.5 -4.5t-39 16t-42.5 17.5t-25.5 16t-51.5 53.5t-65 101.5t7 145t72 131t133 86
t171.5 39t192 -42t213.5 -213t144 -319.5t86 -923.5l-8 -173q91 292 295 739q-3 207 -17 312t-2.5 252.5t49.5 259.5t106.5 198t117 100t90 -29t48.5 -87.5t7 -76.5t-44 -204.5t-78.5 -262.5l-66.5 -177.5t-60 -142.5v-64q23 -244 74 -498t156 -238q65 101 256 607t286 724
t166 354t159 236.5t134.5 120.5t79.5 -15t62.5 -72zM1505.5 1481.5q-46.5 -63.5 -92 -240t5.5 -395.5l8 -54q69 162 101.5 259t49 173.5t22.5 132.5t2.5 112.5t-27 66t-70 -54z" />
    <glyph glyph-name="X" unicode="X" horiz-adv-x="1259" 
d="M169.5 2035q74.5 -10 166 -67t125 -90t48.5 -54.5l69 -99t78.5 -118t84.5 -182t141 -437.5l8 -19l24 34q192 405 266 587l82 201t41 20.5t41.5 -6.5t7 -3.5t-21.5 -66t-76.5 -204t-170 -375t-130.5 -318.5q72 -258 123.5 -413.5t113 -319t169 -393.5t230 -341.5t210 -136
t151.5 3t81.5 37.5t34.5 -25t-58.5 -55.5t-162.5 -30t-180.5 49.5t-163.5 127.5t-147 190.5t-131.5 222.5t-119 264.5t-126 366.5t-110.5 295.5q-21 -36 -76 -144l-192 -359.5l-160 -291.5l-33 -58.5t-31.5 -35t-51.5 -14.5t-33 28.5t71.5 144t183 331.5l277.5 568
q-55 155 -96.5 250l-79.5 187.5t-82 185t-97.5 167.5t-123 142.5t-131 92t-110.5 10.5t-77.5 -89t-32 -120t24 -96t83.5 -59.5t68 -19t7 -25t-15.5 -28.5t-29.5 -17.5t-78.5 8.5t-74 35l-39 63t-35.5 92.5t-2.5 105.5t29.5 128t55 107.5t72 54t112.5 11.5z" />
    <glyph glyph-name="Y" unicode="Y" horiz-adv-x="1271" 
d="M1799 2018q17 -19 15 -32t-16.5 -95t-19 -97t-55 -169l-82.5 -257.5l-52 -173t-45 -138t-118 -295.5q-3 -118 -12 -215.5t-10.5 -281t-20.5 -434.5t-53.5 -482t-107.5 -371t-130 -216t-125 -134.5t-155.5 -83.5t-154.5 -21.5t-97.5 3t-52.5 39t73.5 19t174 -7t210 157.5
t175.5 326t54.5 207.5t38.5 372.5t32 501t25 448q-150 -194 -259.5 -255.5t-258.5 -33.5t-257.5 164.5t-15.5 647.5t20 594.5t-133 78.5t-103 -51.5t-49 -131t-3.5 -98t57 -42t65.5 -32t21 -10.5t8.5 -18.5t-6.5 -23.5t-57.5 -3.5t-103.5 27.5t-57.5 27.5t-17 17t-29.5 59
t6.5 131t93 150t162 75.5t141.5 -54.5t70.5 -109.5t53 -152.5t-23 -536t42 -549t234 -113.5t272 158.5t120.5 249.5q55 697 93 841t86.5 216t92 115.5t85 66.5t69 27t38.5 5t23 6.5t29 -13.5zM1688.5 1934q-40.5 -28 -74.5 -91.5t-80.5 -196.5t-72 -340t-23.5 -215.5
t-18 -242.5q48 170 64 219l38 116l59 175l116 352.5t55.5 248t-64 -24.5z" />
    <glyph glyph-name="Z" unicode="Z" horiz-adv-x="1279" 
d="M1486.5 1603.5q31.5 -16.5 48 -48t14.5 -53.5t-22 -64t-82 -72t-108 -46t-64 -28t-37.5 -51t-143.5 -259t-150 -286l-70 -178l-192 -495.5t-184 -441.5t-157 -236q36 19 185.5 91.5t283 60t308 -49.5t359.5 52.5t208.5 159t43.5 111.5t27.5 47t18 8t19 7.5t18 6t16.5 -7
t12 -20t2 -21.5t-10 -18t-73 -98t-103.5 -134.5t-162 -123.5t-386.5 -37.5t-384 39.5t-208 -38t-258 -206l-179.5 -177.5t-20 -14t-22.5 -14.5t-14 -6t-6 6t-8 14t-8 22t6 34t40 52t46 48t30 32t42 52t40 54t71.5 124t106 208t196.5 478l210 532t156 340t192 345
q-60 -10 -318 -35.5t-443.5 -79t-221 -95t-47.5 -59.5t-16 -46t0 -50t1.5 -33t-10 -20t-20 -7.5t-18 14t-13.5 34.5t-6 48t-2 32t2 22t30 54t64 62t104 52t218 68.5t345.5 65.5t257 22.5t82.5 -1.5t33 5t23.5 10.5t14 16t46.5 63.5t54 70t20.5 24.5t16 16t47.5 33.5t58 28
t51.5 -14.5zM1447 1506q-20 -14 -80 -82l-8 -24q24 0 46 12t31 16t18 10t19 28t12 38t-8 16t-30 -14z" />
    <glyph glyph-name="bracketleft" unicode="[" horiz-adv-x="688" 
d="M339.5 2014q47.5 -30 106.5 -130l34 -4l312 56l101 20v-88l-288 -40l-145 -36q42 -358 47.5 -785t10.5 -597t9.5 -561.5t-18.5 -754.5l384 10v-72l-111 -8l-14 4l-271 -16q-45 -186 -76.5 -225t-82 -67t-86.5 -26.5t-65 38t-36.5 99t30 107t91 79t122.5 68.5
q3 149 3.5 394t-14 635t10 892t-28.5 771q-193 -27 -219.5 22t-20.5 107t38 90t80.5 40t96 -22zM176 1951.5q-27 -38.5 -3 -93.5t96.5 -38.5t81.5 30.5t4 42t-26.5 44t-73.5 35t-79 -19.5zM360.5 -1008.5q-29.5 -19.5 -76.5 -56t-60.5 -87t13 -67.5t47 3t47.5 78.5t42.5 83
t16 45t-29 1z" />
    <glyph glyph-name="backslash" unicode="\" horiz-adv-x="593" 
d="M537 -154q-184 1113 -483 2119q21 20 46 28q52 -15 76 -61l-10 -16l212 -856l227 -1041l46 -256q-19 -29 -43 -50q-53 40 -71 133z" />
    <glyph glyph-name="bracketright" unicode="]" horiz-adv-x="621" 
d="M578.5 -1225q-42.5 31 -93.5 133l-31 5l-290 -47l-94 -17l3 88l268 31l134 32q-25 360 -13.5 786.5t14 596.5t13.5 561.5t46 753.5l-355 1l3 72l102 4l13 -4l251 9q21 131 52 169t78.5 64.5t80.5 24t58.5 -40t30 -100t-18 -79.5t-73 -49.5t-116.5 -65.5q-8 -148 -18 -393
t-12 -635.5t-44 -891t-3 -771.5q179 22 201.5 -28t14.5 -107.5t-38.5 -88.5t-75.5 -37.5t-87.5 24.5zM731.5 -1167.5q26.5 37.5 6.5 93.5t-87.5 41.5t-76 -28.5t-5.5 -42t22.5 -44.5t66.5 -37t73.5 17zM676 1795.5q28 18.5 59 27.5t45.5 59t-9.5 67.5t-43.5 -1.5t-33 -50
t-29 -55.5t-16.5 -45t27 -2z" />
    <glyph glyph-name="underscore" unicode="_" horiz-adv-x="864" 
d="M716 77h44l8 -16l32 -28q-8 -23 -28 -40l-36 4l-87 4l-129 -1l-292 -35q-21 -5 -48 -8l-52 -12l-48 -4l-36 -8l-12 8l-24 12l4 28q18 14 40 24l96 12q21 7 48 12l351 35l113 9z" />
    <glyph glyph-name="a" unicode="a" horiz-adv-x="1134" 
d="M719 1143l61 -21l46 -50l16 -21l46 12q32 0 61 -26l14 -30l-2 -32q-1 -33 -6 -106t-74.5 -225.5t-139.5 -288.5q7 -32 19 -64.5t50 -61t132 22.5l40 48q12 28 35 54l18 65q17 10 35 26l25 -4l16 -21l-40 -96q-11 -28 -26 -58l-30 -57q-97 -105 -179 -103t-108.5 24
t-45.5 56.5t-46 68.5l-103 -84q-66 -48 -117.5 -75t-116.5 -50t-126 -11t-92 35.5t-51 59t-30.5 149.5t30.5 238t80.5 198.5t106 153.5t137.5 138t131 90t128 44t106 2zM558 1081.5q-54 -21.5 -141 -113.5t-120.5 -168.5l-62 -141t-48 -128.5t-35.5 -144.5t-7 -159.5
t138 -96l40 6l117 46l99 65l69 64l20 28q-7 324 63 481t77 166t19 54l-6 7l-22 25q-45 36 -95.5 33.5t-104.5 -24zM826.5 906q-26.5 -58 -57 -162.5t-24.5 -275.5q18 37 68.5 167t79.5 225.5t-5.5 99.5t-61 -54z" />
    <glyph glyph-name="b" unicode="b" horiz-adv-x="1014" 
d="M824.5 1821.5q35.5 -6.5 54 -28.5t48 -67.5t42 -145.5t-56 -372.5t-320.5 -1041.5l-91 -221q14 -109 61 -138t82.5 -40t70 1.5t104.5 76t138.5 215t86.5 312t11 306.5t-39.5 191.5t-60 51t-41 17.5t1 23t56 -4t76.5 -52t63 -91.5t58 -142.5t27.5 -207.5t-51.5 -296.5
t-111.5 -258t-122 -120t-123.5 -60.5t-110 -16t-86 20.5t-66 27.5t-38.5 22.5t-50.5 53q-19 -18 -57 -74.5t-102 -104t-154 -19.5t-120 158.5t-24 159.5t25 44q2 -148 46 -186.5t91.5 -55t94.5 13t114 154.5l34 75q-53 396 -53 556.5t15 294.5t35 252.5t55 258t87.5 248.5
t127.5 154t106 54t66.5 2.5zM756 1742.5q-60 -10.5 -129.5 -109t-144 -390t-79.5 -597.5t30 -551l108 351q152 546 229 777t83 287t-1.5 106.5t-21.5 93.5t-74 32.5z" />
    <glyph glyph-name="c" unicode="c" horiz-adv-x="837" 
d="M589.5 1063q111.5 -72 119.5 -97.5t-22 -15t-60.5 43t-104 53.5t-144.5 -69t-144 -219t-95 -284t-2 -227t65 -120t113 -64.5t153 2t131 62t77 101l51.5 95.5t41.5 39q-5 -59 -35 -110l-52 -85.5t-44.5 -62t-63.5 -55t-115 -45.5t-156.5 -21t-136.5 16.5t-104.5 62
t-75.5 156.5t-3.5 241.5t101 307t237 273.5t269 22z" />
    <glyph glyph-name="d" unicode="d" horiz-adv-x="1066" 
d="M1169.5 2018q31.5 -16 49.5 -57t21 -103.5t3 -83.5t-6.5 -78t-10 -68.5t-6 -25.5t-61.5 -241.5t-67.5 -250.5t-11 -35.5t-8.5 -25.5t-8 -23t-61 -179l-148 -355q-10 -16 -17 -37l4 -51l13 -51l4 -50l47 -148q34 -82 52 -111t28 -53l29 -38l21 -38l-29 -29l-30 -9
q-1 5 -8 9l-84 110l-106 210l-21 46q-6 15 -25 25q-12 -19 -30 -37l-109 -144q-49 -52 -96.5 -82.5t-68.5 -41t-46 -19t-50.5 -15t-51 -6.5t-52.5 -2t-48.5 4.5t-42.5 17t-42 23t-38 25t-29.5 33.5t-20.5 44t-12 46.5t-1.5 99.5t18.5 124t22 73.5t48.5 112t67.5 124.5
t122 128.5t160.5 124t110 50.5t71.5 19t50.5 8.5t29.5 32t2 74t0 52.5t0 6t4.5 84.5t12.5 107.5t8 50.5t23.5 99t59 191.5t73.5 179.5t51 78l22 24.5t16.5 15t39.5 23.5t80.5 22.5t82 -10zM1049 1947q-13 -17 -40 -69.5t-80 -293t-70 -356.5t-21 -194t6.5 -92.5l16 -22.5
t7.5 -30l-30 -26l-8 -42l4 -97l4 -12l-4 -38l4 -17l13 17l101 227q17 61 21 73t61 174t70 225.5t25.5 105.5t25 143t17 128.5t-4 88.5t-21.5 76t-27.5 27.5t-35.5 17t-34 -12.5zM638.5 910q-14.5 -4 -48.5 -18.5t-108 -65.5t-141.5 -133.5t-74 -96t-31.5 -45.5
q-33 -63 -38 -77.5l-26 -73t-31.5 -116.5t-12 -80.5t-1 -39t4 -38t20.5 -55.5t29.5 -44t31.5 -17t77 -1.5t78 15t35 15.5t80 56t118 127t108 178l16 25l-4 42q-6 37 -8 80q-26 367 -42.5 367t-31 -4z" />
    <glyph glyph-name="e" unicode="e" horiz-adv-x="822" 
d="M688.5 1120.5q57.5 -39.5 96 -135.5t32 -169t-45.5 -135.5t-116.5 -111t-167 -64t-126.5 -5t-153 80.5q-23 -115 -26.5 -158t5.5 -136t26 -159.5t71 -124t94.5 -81t87.5 -43t87 -5t78.5 32.5t72 80t49.5 129.5t24 86.5t17.5 24t16 -2.5t20.5 -17.5t-18 -112t-64.5 -144.5
t-110.5 -85t-143.5 -47t-163.5 30t-159 103.5t-79 107.5t-41 114t-25.5 170.5t30 240.5t102.5 266.5t153.5 190.5t154.5 96.5t117.5 24.5t104 -42zM489 1074q-53 -42 -129 -155t-132 -291q138 -106 243 -79t158 99t68.5 140t9 144.5t-35 127t-79 53.5t-103.5 -39z" />
    <glyph glyph-name="f" unicode="f" horiz-adv-x="832" 
d="M926.5 1700q21.5 -1 42.5 -10t49 -27t49.5 -49t38.5 -77t20.5 -114t-22.5 -264.5t-67 -314.5t-113.5 -246t-115 -181.5t-130.5 -139.5q91 -69 125.5 -106.5t64 -84.5t46 -105.5t27 -101.5t19.5 -88t16.5 -127t2 -126t-11 -80t-11 -68t-30.5 -116t-52 -130t-45 -64
t-39.5 -34t-32.5 -23t-36 -17q-58 -12 -71 -15.5t-44 2t-63.5 23.5t-81 73t-77.5 111t-39.5 85t-19.5 125t-7.5 128t10.5 163t21 209t26 215q-79 -20 -133 8t-68.5 50t-22 52t-11 64t5.5 62t21.5 52t29 46t88.5 94q22 12 50 20l11 4l43 -12l-7 -28h-36q-24 -7 -50 -20
q-40 -32 -58 -52t-29 -44t-9 -86t37 -110t140 -44l9 48q86 504 142 740t99 380t66.5 192t67 84t54 42.5t23 12t40 13.5t49 7zM877.5 1645q-30.5 -14 -66.5 -69t-321 -1299l-18 -76l29 8l7 8l47 16l72 48q87 96 133.5 174t76.5 149.5t90 279.5t86 388.5t22.5 237.5t-24 86
t-42 43.5t-41.5 17t-50.5 -11.5zM620 225l-87 -60q-13 -10 -32 -20l-32 -16q-47 -547 -41.5 -645t9 -120t19.5 -82t28.5 -96t32.5 -66t47 -57t81 -10t85.5 65t50.5 92t40.5 182t25 232t-2.5 216t-27 184.5t-60.5 109.5t-98.5 97z" />
    <glyph glyph-name="g" unicode="g" horiz-adv-x="1178" 
d="M749 1236l65 -7q21 -10 42 -24q11 8 55 -6.5t54 -20t19.5 -41t13.5 -93.5t-6.5 -170.5t-34.5 -185t-50.5 -125t-89.5 -160.5l-84 -119l-17 -223l383 364l10 -35l-378 -430q-7 -29 -11 -59q2 -788 -7.5 -981t-38.5 -269t-92.5 -131t-136 -81t-172.5 -10.5t-185 131
t-74.5 373t172 532t450.5 535.5l13 138l-8 62q-85 -87 -133.5 -126t-145 -87.5t-197 -37t-141.5 102t-37.5 216.5t103.5 317.5t249 346t210 190.5t151 95q25 7 49 19zM757 1182q-69 -28 -135.5 -91.5t-146 -167.5t-174.5 -267.5t-137 -301t-21 -215.5t68.5 -110.5t114 -10
t152.5 95t109 97.5t49 77q12 86 14 169.5t21.5 258.5t52 283.5t59.5 165.5zM874.5 1138q-25.5 -14 -80.5 -340t-53 -340.5t-1 -83.5q55 73 108.5 177t74.5 246t24 194t-2 99.5t-25 54.5t-45.5 -7zM242 -694q-92 -259 -87.5 -398t41 -247.5t103 -160.5t159 -15t121 130
t28.5 358.5t31 883.5q13 30 -145.5 -131t-250.5 -420z" />
    <glyph glyph-name="h" unicode="h" horiz-adv-x="1012" 
d="M612.5 2020.5q32.5 -3.5 67.5 -41t20.5 -126.5t-49.5 -149.5t-91.5 -137.5t-123.5 -150q-18 -23 -88 -100q-19 -29 -24 -68q-12 -32 -20 -72l-72 -652l-12 -96l4 -32q55 174 102 260.5t98.5 147t92 96t59 47t43.5 21t51 7t43.5 -6t40.5 -29.5t30.5 -42.5t23.5 -94.5
t8 -192t-10 -120t-10 -74t-6 -74t0 -46t8 -120t44 -138t58 -62t40 0t40 26t44 48t26.5 31.5t12 14t19.5 4.5t16 -20t-4 -34t-24 -46t-42 -52t-65.5 -48.5t-85.5 -35.5t-76.5 2.5t-64.5 50.5t-45.5 70.5t-18 53t-10.5 95.5t12 216t28 234t-6 170t-26.5 88t-19 20.5
t-17.5 18.5t-33 5t-58 -31.5t-74.5 -77.5t-72 -100.5t-57.5 -111t-50 -124t-64 -283.5l-36 -236l-8 -84q-2 -36 -12 -80q0 -36 -24 -64l-8 -20l-71 35l-12 56l23 206l30 410l59 672l27 167l-52 -18q-10 13 4 40l55 37q21 169 47.5 267.5t57 184t78 156t85 99.5t75.5 32.5
t70.5 0zM564 1943q-20 -10 -37.5 -37t-40 -76.5t-48.5 -117.5t-90 -259l-9 -80l57 72q70 74 110.5 124t76.5 112t54.5 124t22 98.5t-36 43t-59.5 -3.5z" />
    <glyph glyph-name="i" unicode="i" horiz-adv-x="297" 
d="M200 1583q33 -6 53 -38l27 -58q-10 -29 -27 -64q-23 -15 -48 -37q-29 10 -58 32q-12 25 -16 58l16 75zM122 971q31 -4 56 -28q10 -8 16 -20l-12 -44q-65 -284 -77 -545.5t24 -299t77.5 -24.5t63.5 101q13 7 28 8l4 -32l-4 -8q-7 -60 -41.5 -92t-66.5 -34t-69.5 14
t-70.5 76.5t-52 231.5l21 354q54 373 103 342z" />
    <glyph glyph-name="j" unicode="j" horiz-adv-x="536" 
d="M1821 2014l75 -6l47 -58q-7 -38 -23 -82q-22 -24 -53 -46l-52 -12l-18 12q-17 29 -29 64q3 30 12 64q17 32 41 64zM1827 1308q12 -2 24 -8t-6 -26t-23 -28.5t-14 -18t-42.5 -47.5t-49.5 -86t-30.5 -687.5t-46.5 -979t-99 -530t-133 -260t-156.5 -89.5t-152.5 14
t-100.5 105.5t-44.5 93.5t-4 32.5t27.5 24.5t79 -86.5t117.5 -129.5t146 50t110 173t42 192t22 204t20 316t36 690.5t30 660.5t16 202l22 48t71 69t77 59t26.5 21.5t16 14t19.5 6.5z" />
    <glyph glyph-name="k" unicode="k" horiz-adv-x="877" 
d="M383.5 1813q35.5 -2 48.5 -9.5t10 -23.5t-10 -30.5t-31 -150t-42 -374t-8 -531.5q54 148 102.5 237t104.5 158t97.5 86.5t90 11.5t66 -30.5t30.5 -59t8 -88.5t-38.5 -128t-170.5 -221q-11 -20 -12 -47q93 -54 123.5 -156t39.5 -199.5l22 -231t43.5 -169.5t73.5 -27.5
t56.5 44t33.5 37.5t24 -13t6 -33t-4 -27.5t-16 -16.5t-36 -21t-48 -18.5t-64 3.5t-66 22t-40 37.5t-34 82t-42 236t-33 216.5t-32.5 87.5t-64.5 73.5q-26 -3 -39 -7t-39 -19q-20 -16 -30 -26.5t-82 -112.5q-11 -25 -20 -56q-12 -310 -26 -451q-47 -306 -100.5 -396
t-122 -90.5t-93 27.5t-28 118t20.5 228t94 342.5l136 411.5l-14 287q-12 215 -8 392.5t16 292t32 175t50 110t65.5 47.5zM679 1118q-34 -15 -65 -48t-85 -118.5t-146 -291.5l-21 -42l3 -164q113 132 143.5 164.5l83.5 88.5t85 102.5t48 93.5t18 109.5t-14 91.5t-50 14z
M265 408q-134 -343 -187.5 -615.5t-18.5 -318t83 72t71.5 253.5t64.5 473z" />
    <glyph glyph-name="l" unicode="l" horiz-adv-x="745" 
d="M1046 1605q17 -185 -23 -507.5t-106.5 -573.5t-147.5 -399l-20 -44l16 -44l38.5 -43t16 -14t25.5 -23t34 -28t46 -16t52 -2t62 28t44.5 29t16 4t9.5 -11t-10 -34t-27.5 -45.5t-35.5 -35.5t-42 -16t-52 -2t-74 20t-107 93q-12 19 -28 36q-14 16 -32 28l-28 -32
q-10 -18 -24 -40q-24 -40 -69.5 -95.5t-100 -100.5t-138 -46.5t-120.5 34.5t-44.5 66t-2.5 87t30 98t51 67t48 36t40 -4t23 -24.5t8 -24t-5.5 -19.5t-20 -8t-40 -14t-51.5 -61t-8 -100t51.5 -64.5t70.5 5t124.5 117.5t145.5 227l-34 74q-126 208 -143 560t32.5 644
t212 444.5t241.5 55.5t96 -282zM750 1788.5q-112 -98.5 -165 -374t-56 -514.5t36 -422.5t82 -246.5t55 18q90 255 132 457t75 462t-7 489.5t-152 131z" />
    <glyph glyph-name="m" unicode="m" horiz-adv-x="1297" 
d="M195 1091q30 -7 32 -40l119 -240q150 193 240.5 221t157.5 -82.5t48 -412.5q69 316 137.5 397t115.5 100.5t102.5 12t96.5 -56.5t39.5 -200.5t-47.5 -375t-48 -346.5t31.5 -146t83.5 2t67 58t22.5 23t6 -24t3.5 -42.5t-28 -63.5t-99.5 -31t-123.5 45.5t-67 160t13 240.5
q56 407 61.5 525.5t-31 156.5t-107 -28.5t-111.5 -200l-59 -195t-51 -249.5q-1 -30 -20 -56q-16 -23 -48 -24q-10 15 -20 36l-7 2l-8 272q-3 210 -32 318.5t-60.5 116.5t-92.5 -44.5t-130 -161.5q19 -49 61 -216t39 -261t-16 -148t-46 -123t-68.5 -102.5t-85.5 -47t-88 8.5
t-58.5 81t-1.5 155.5t46.5 185t40.5 136t35 108.5t33 134q-48 160 -112 308l-20 24q2 14 8 28q23 39 47 62zM304 593q-34 -110 -38.5 -131.5t-48.5 -169.5t-48 -188t3 -95t35 -58.5t41.5 4t44 50t49.5 155t4 206t-18.5 110t-23.5 117.5z" />
    <glyph glyph-name="n" unicode="n" horiz-adv-x="1000" 
d="M128 1260l44 -35q36 -73 40 -95t9 -40t8 -31.5t7 -39.5t12 -48t10 -33t14 -33q56 64 66 84t76 92l85.5 93.5t44 34t48.5 18.5t48 4t44 -10t29 -12t18 -12t27 -22t30 -30t32 -58t28 -66t12 -46t9.5 -86.5t0 -136t-23.5 -197.5t-21 -211t30.5 -111t76.5 0l32 -28l-20 -44
q-18 -7 -41.5 -3t-70.5 23t-72.5 90.5t-26 139t13.5 211.5t-2.5 260.5t-22 128l-30.5 61.5t-45.5 62.5t-52 16t-72 -31.5t-75 -75l-69 -81.5t-63 -92t26.5 -187t69 -240.5t6 -180t-26 -118t-30 -62t-52 -55.5t-97.5 -47.5t-91 -4t-65.5 42t-48 123.5t10.5 194t55 189
t65 154.5t42.5 90t-13 73t-41 147t-82 222q51 27 84 49zM210 707l-16 -51q-139 -316 -132 -454.5t54 -144.5t77.5 5t46.5 37t37.5 91.5t15 172t-82.5 344.5z" />
    <glyph glyph-name="o" unicode="o" horiz-adv-x="934" 
d="M846 1172q24 -8 28 -38q-5 -28 -10.5 -41.5t-15 -20t-18 -17t-18.5 -34t-54 -100.5q33 -48 48 -312t-61.5 -404.5t-143.5 -193.5t-143.5 -77t-138 -29.5t-138.5 9.5t-123 65.5t-77 139t-21.5 231.5t78.5 290.5t158.5 229.5t159.5 116.5t142 38t102 -1t98 -38.5
q60 54 74 84.5t34 85.5zM439 957q-64 -22 -144 -93q19 -36 120.5 -69.5t237.5 139.5q-54 29 -102 37t-112 -14zM691 850q-70 -106 -218 -142.5t-227 105.5q-96 -180 -130 -323.5t2.5 -323t89 -205.5t122.5 -17t134 58.5t126.5 170.5t84 304.5t16.5 372.5z" />
    <glyph glyph-name="p" unicode="p" horiz-adv-x="934" 
d="M525.5 1329.5q61.5 4.5 125.5 -56t90 -177.5t7 -247.5t-107.5 -269.5t-124.5 -173t-76 -62t-64 -38t-106 -22t-84 10t40.5 30t84 15t78.5 30.5t88.5 84.5t116 208t36 304.5t-90.5 183t-91.5 23.5t-77.5 -33t-89.5 -113l-97.5 -196t-43 -431q102 -1094 78.5 -1268
t-72.5 -250t-120 -98.5t-126 12t-79.5 150t8.5 371.5t80.5 537t113.5 614l-14 71l-62 503q15 51 53 59q17 -20 24 -48l56 -242l20 -77q45 145 81.5 223t81.5 147.5t83.5 114t78 75.5t101 35.5zM59 344q-79 -399 -122.5 -669.5t-54.5 -453.5t12.5 -262t78 -85t77 58.5
t26.5 121t8 191.5t-5.5 509.5t-12 388t-7.5 201.5z" />
    <glyph glyph-name="q" unicode="q" horiz-adv-x="1180" 
d="M726 1354l105 13l32 -20l32 -47q26 -55 5.5 -170t-104.5 -274.5t-179 -279.5q66 7 86 2.5t72 -10.5l60 -44q64 -66 100 -177t51.5 -218.5t24 -228t0.5 -325.5t-40 -295.5t-64.5 -134t-128.5 -57.5t-161 6.5t-126 91.5t-89 222t-37 335t81 616q-141 -156 -265 -163
t-205 21t-125.5 102t-63.5 242.5t106.5 377t343 341t401.5 134.5zM397 1310.5q-115 -55.5 -264.5 -285t-160 -424t62 -280t134.5 -80.5t118 37t101.5 78t99.5 163q74 402 109.5 526t89.5 242q-20 39 -38 59t-77.5 20t-174.5 -55.5zM783 1315q-17 -11 -36 -28q5 -20 20 -36
l4 -52l-151 -480l-25 -100q57 77 145.5 255.5t101 279t-4.5 133.5t-54 28zM580 499q-48 -227 -64 -413t-9.5 -360t40.5 -328.5t100 -221t153 -44t118.5 117t30.5 238.5t-13 286.5t-34.5 282.5t-56.5 251t-68.5 164.5t-90.5 54.5t-106 -28z" />
    <glyph glyph-name="r" unicode="r" horiz-adv-x="853" 
d="M1175 1005q24 -11 46 -30l21 -55l-17 -50l-84 -131q-161 -353 -172 -442t24 -185.5t85.5 -128.5t94.5 -16t67.5 45.5t73.5 151.5q26 -5 34 -34q-4 -28 -17 -55l-25 -46l-34 -42q-80 -63 -110 -71.5t-64.5 -7.5t-72.5 15.5t-90 58t-72 77t-31 98.5t-3 124.5t41 128
l165 333.5q12 19 17 42l-86 -66l-109 -70l-113 -64l-21 -45q-263 -625 -309.5 -712.5t-97.5 -160.5t-101.5 -93.5t-90.5 6.5t-45 124q4 29 4 63q11 24 26 47q26 -2 32 -16t-4.5 -83.5t-3 -92t57.5 -4t88.5 85.5t72.5 161t91.5 272t165.5 434q-58 26 -80.5 50t-32.5 64.5
t13 99.5t63.5 86t70 30t59 -14t44.5 -38t21.5 -47t-25.5 -143q185 86 300 206t133 140zM596.5 850q-32.5 -30 -33.5 -90.5t12.5 -82t54.5 -35.5q41 66 54 127.5t-21 86t-66.5 -5.5z" />
    <glyph glyph-name="s" unicode="s" horiz-adv-x="617" 
d="M464.5 1193q70.5 -20 85 -32t20 -37.5t9.5 -33t4 -46t-2 -43t-4 -17t-20 -10.5t-22.5 37.5t-15 74t-76 68t-144.5 -41.5t-101.5 -136t-13.5 -144t67.5 -147t130.5 -119.5t155.5 -147t108.5 -221.5t-46 -289l41 -39q12 -16 79 -82q-36 -25 -97 39l-56 25l-24 -63
l-42 -52.5t-56 -54.5t-86.5 -52t-123.5 -28t-101.5 28.5t-34.5 88t10 90.5t35.5 66t78 75.5t128.5 46t183 -41.5q60 164 23.5 277t-91 181.5t-119 94.5t-141.5 69t-99.5 77.5t-31 55t-14 42.5t-6 48.5t-2.5 34t22 88t72 140.5t147.5 105.5t170 25.5zM333 -45.5
q-51 -7.5 -92.5 -92t-32.5 -136t40.5 -66t87.5 11t86.5 63.5t59.5 93l29 67q-37 47 -82 57t-96 2.5z" />
    <glyph glyph-name="t" unicode="t" horiz-adv-x="757" 
d="M807 1856.5q68 13.5 108.5 -25t52.5 -88t-8 -192.5t-58.5 -267.5t-58.5 -211.5l-8 -20l62 15q14 9 28 24q9 -1 16 -8q23 -4 28 -48l8 -16l-16 -27q-23 0 -52 4l-92 -24l-40 -178q-44 -187 -98 -382l-10 -81q5 -98 16 -154q52 -229 86.5 -285.5t79.5 -56t83 41.5
t46.5 86.5t31.5 131.5q34 6 57 11l12 -59q-44 -99 -61.5 -130t-53.5 -66t-100 -50.5t-126.5 17.5t-144.5 364l-22 -77q-41 -118 -96 -216t-87.5 -135t-70 -51.5t-68.5 -0.5t-41.5 76.5t2 94.5t37.5 44q4 -60 9.5 -112.5t33.5 -59.5t44.5 17t43.5 83l55.5 121.5t72.5 223.5
l38 132l16 61l11 194q-9 272 -12 313l-48 -16l-48 -24q-64 -2 -76 43q16 18 80 37l96 43q-17 172 -11 284.5t22.5 214.5t39.5 170.5t73 134.5t118 79.5zM771.5 1780.5q-29.5 -6.5 -53.5 -49.5t-48 -129.5t-35.5 -184t-18 -220.5t-9.5 -204l121 36l12 18q48 194 64 251.5
t38 201.5t12.5 199t-31.5 71.5t-51.5 10zM617 924l6 -114l21 -185l56 280l16 54z" />
    <glyph glyph-name="u" unicode="u" horiz-adv-x="1119" 
d="M969.5 1160.5q25.5 -6.5 33 -16t21.5 -51t6 -145t-36 -203.5t-65 -195t-89 -185l-21 -51q8 -71 32 -158.5t58 -97t59.5 15t56.5 80.5t59 115t39.5 102.5t11.5 71.5t11 57l22 13l12 -26l5 -19q-13 -122 -30.5 -180t-51 -136t-66 -113t-62.5 -42t-69 -3t-56 13.5t-45 51
t-44 77.5t-37 56q-39 -52 -108 -116t-137 -105.5t-156 -58t-147.5 11.5t-109 169t-46 254.5t22 211.5t60.5 225.5t76 203.5t52.5 100.5t30 25.5t35 -13t3.5 -37.5t-47 -60.5t-59.5 -148t-48.5 -210.5t3.5 -209t43.5 -196t61.5 -148t91.5 -78t114.5 5.5t131 102t92.5 113
t29 63q-34 111 -36.5 191.5t4 154t30.5 160.5t69 186.5t85.5 129t60 39t45 3zM858 943.5q-26 -72.5 -50.5 -189.5t-26 -190t14.5 -174l78 166q109 283 116.5 401.5t-23.5 133t-57 -30t-52 -117z" />
    <glyph glyph-name="v" unicode="v" horiz-adv-x="799" 
d="M1017.5 1139.5q16.5 -0.5 51.5 -15.5q-2 -31 -24 -60q-15 -9 -32 10.5t-65.5 25t-120.5 -143t-139 -410t-78.5 -421.5t-61.5 -247q-18 -25 -40 -48q-32 3 -56 28l8 36l-8 107q11 163 -20.5 302.5t-82.5 229t-92.5 137.5t-73 61t-73 0t-61 -32t-69.5 -92q-12 24 -20 60
q19 25 48 44q44 44 79 60.5t97 31.5t129 -35t115.5 -157t63.5 -201.5t17.5 -217.5t14.5 -231l84.5 560.5t87 421t78 135.5t91.5 57.5t69 9.5t43.5 -3t40 -2.5z" />
    <glyph glyph-name="w" unicode="w" horiz-adv-x="1067" 
d="M761 1093l88 -9l32 -39q13 -22 15.5 -106.5t-46 -199t-78.5 -156.5q57 -356 83.5 -436t72 -81t64.5 114t21 209t26 377l-4 15q3 22 16 49q16 17 78 19q17 -2 32 -14l4 -49l-36 -201l-4 -64q-44 -249 -84.5 -366t-85.5 -132.5t-68 -8t-44.5 21t-52 73.5t-61 156t-42.5 206
q-59 -111 -82 -268q-28 -153 -32 -235l-16 -142l-20 -53q-8 -22 -24 -45q-23 2 -44 10l-16 30l12 14l20 49l16 98l-12 98l-32 112q-4 30 -20 87.5t-48 133.5l-140 215q-16 16 -70 64t-74 59t-40 19l-44 25l-4 54q15 18 40 29l83 53q19 -13 76 -59l72 -69l96 -112l140 -284
q9 -19 25 -136q37 145 50.5 178t32.5 74t37 66l-24 195l12 186l32 112q15 15 72 64zM794.5 1028q-17.5 -17 -32 -72t-13 -124.5l3.5 -164.5q56 113 78.5 181.5t23.5 108t-21 64t-39.5 7.5z" />
    <glyph glyph-name="x" unicode="x" horiz-adv-x="756" 
d="M230.5 1117q40.5 -2 82 -25.5t102.5 -178t76 -414.5l91 154l118 185t53.5 71.5t41 17.5t23 -14t17.5 -28t0 -41t-17 -28.5t-31 -38.5t-103 -151t-107.5 -164t-58.5 -101q33 -171 54 -238.5t72.5 -220t149.5 -200.5t155.5 -34t113 71t76 69.5t32.5 17t17 13.5t16 4.5
t18 -15t4 -22t-10 -25.5t-25 -29.5t-60 -61.5t-112 -61.5t-138 -9t-145 45.5t-132 112.5t-100 191t-56.5 211.5t-52.5 34.5t-56.5 -75t-59 -76.5t-61.5 -74t-35.5 -10t-23 0t-13 4.5l-23.5 23t17 51.5t46 56.5t28.5 38t59 76.5t74.5 95l58 93q-12 62 -27.5 167t-50.5 249
t-68 194t-80 43t-69.5 -74.5t21.5 -93.5t51 -35.5t7 -21.5t-5 -23.5t-16.5 -18.5t-25.5 -10t-52.5 22.5t-43.5 48.5t-13 69t35 101t82 70t79.5 13z" />
    <glyph glyph-name="y" unicode="y" horiz-adv-x="1132" 
d="M554.5 1401.5q34.5 -50.5 47.5 -106t27 -134t-17.5 -244t-37.5 -205.5t-14 -130t-5 -166t34 -141.5t64 -73.5t93.5 36t183.5 220q15 110 20.5 235.5t48 292t104.5 267t129.5 116.5t89 -14.5t-4 -149t-87.5 -300t-190 -408.5q3 -36 21 -371q25 60 48.5 101.5t60 83.5
l90.5 102q16 -4 32 -12l8 -28l-4 -12l-4 -44q-116 -27 -207 -293l20 -72q24 -204 30 -340t7.5 -216t-10.5 -213t-41 -218t-96 -146t-109 -73.5t-94.5 -23t-111.5 6.5t-88 68t-28.5 143.5t63.5 266.5l139.5 367t217.5 463l-34 356q-71 -85 -84.5 -98.5t-37.5 -39.5
t-61.5 -62.5t-93.5 -56.5t-111.5 -3.5t-87 76t-40 137t-1 136t10 124t13.5 145.5t32.5 194.5t27 185.5t-16 165t-55 100.5t-73 -14t-51 -102.5t69.5 -144q11 -18 16 -40q-6 -14 -20 -28q-29 11 -59 31.5t-54.5 48t-26 102t45.5 131t137 64.5t124.5 -42.5zM1189 1223
q-18 -60 -26 -78t-83 -349l-47 -207q110 211 156.5 349.5t72.5 268.5t-14.5 103t-58.5 -87zM1020 -83l-92 -215t-86.5 -218.5l-105 -293.5t-70 -258t23.5 -144.5t127.5 -21t133.5 116.5t62.5 181t23 193t2.5 174.5t-7 172.5t-12 313z" />
    <glyph glyph-name="z" unicode="z" horiz-adv-x="1015" 
d="M931 960.5q26 -2.5 64 -32.5t33.5 -85t-40 -89.5t-76 -33.5t-146.5 6l-183 -421t-245 -456q107 48 223 92.5t244 46t206 -8.5t149 -32t77 -17t20 -2t7 -54t-13 -54t-18 -12t-26 -7.5t-23 -1.5t-66.5 29l-132.5 66t-153 39t-235 -37t-202.5 -68l-121.5 -81l-32 -33
l-40 -28q-17 -13 -40 -24q-19 -5 -40 -14q-18 13 -36 33q8 25 24 47l28 38q19 11 36 28l52 28l31 43q34 95 90.5 219t138 282t131 265.5t0.5 97t-101.5 -13.5t-102 -15.5t-60.5 -18.5t-29 -22.5t-48 -54.5l-78 -97q-19 12 -32 33l-8 38l8 9q52 80 68 96.5t26.5 21.5t46 18.5
t154.5 34.5t214 25q47 40 97 89t92 70t68 18.5zM808 837q-41 -39 34 -51.5t113 25.5t13.5 63.5t-72 13.5t-88.5 -51z" />
    <glyph glyph-name="braceleft" unicode="{" horiz-adv-x="1328" 
d="M913 1996.5q30 -19.5 54.5 -40.5t95.5 -96l12 -48l-4 -32l-16 -24q-58 38 -113 99t-126 99t-136 -23.5t-83.5 -90.5t-34 -60.5t-29 -63.5l-41.5 -103t-65 -360.5t0 -568.5l72 -112q18 -23 35 -55.5t54 -190.5t47 -493.5t27 -411t29 -109.5t26.5 -67.5t33 -63t39.5 -56.5
t47.5 -49t60 -33.5t113 -5.5t106 27.5l52 44l51.5 44.5t43 56l52 24l12 -8l8 -12l-12 -60l-88 -100q-81 -55 -104 -80t-54 -43t-78 -34.5t-121 -7.5t-121.5 42t-69.5 60.5t-51 93.5t-35 85.5t-22 127.5t-22 306t-6.5 381t-39 340t-60.5 188l-28 24q-14 -5 -24 -16
q-6 -35 -20 -76l-56 -132l-48 -44q-18 -22 -48 -48q-27 -14 -60 -36l-16 -4l-40 4l-8 4l-8 12q-20 20 -40 52l-8 12l-4 64l12 76l24 68q9 34 36 60l44 48q24 19 48 48l60 36q33 11 48 44q7 370 31.5 600.5t74 356.5t93.5 188t79.5 99.5t86 58t127 13t106.5 -27zM287 560
l-48 -16l-40 -24l-60 -60l-28 -96q4 -23 12 -48q12 -16 32 -28q22 5 44 16l40 24l28 32l20 40l24 88l8 52q-12 14 -32 20z" />
    <glyph glyph-name="braceright" unicode="}" horiz-adv-x="1354" 
d="M466 -1086.5q-30 19.5 -54.5 41t-96.5 95.5l-12 48l4 32l16 24q59 -37 114 -98.5t126 -99t135.5 23.5t83 90.5t34.5 60.5t29.5 63t41 103.5t64.5 360.5t0 568l-72 112q-17 23 -34 55.5t-54 190.5t-47 493.5t-27 411t-29 109.5t-26.5 67.5t-33 63t-40 56.5t-47.5 49
t-59.5 33.5t-113 5.5t-106 -27.5l-52 -43.5l-52 -44.5t-43.5 -55.5l-52 -24l-12 8l-8 12l12 60l88 100q82 54 105 79t54 43.5t78 35t120.5 7.5t121.5 -42.5t70 -60.5t50.5 -93t34.5 -85.5t22 -127.5t22 -306.5t7 -382t39 -340t60 -187.5l28 -24q14 5 24 16q7 35 20 76
l56 132l48 44q19 22 48 48q28 14 60 36l16 4l40 -4l8 -4l8 -12q21 -20 40 -52l8 -12l4 -64l-12 -76l-24 -68q-8 -34 -36 -60l-44 -48q-23 -20 -48 -48l-60 -36q-32 -11 -48 -44q-6 -370 -30.5 -600t-74.5 -356.5t-93.5 -188t-79.5 -99.5t-86 -58.5t-126.5 -13t-106.5 27z
M1091 350l48 16l40 24l60 60l28 96q-3 23 -12 48q-11 16 -32 28q-21 -5 -44 -16l-40 -24l-28 -32l-20 -40l-24 -88l-8 -52q13 -14 32 -20z" />
    <glyph glyph-name="asciitilde" unicode="~" horiz-adv-x="1024" 
d="M790 763q30 -2 54 -10t52 -42t24 -100t-34 -98t-40.5 -37t-30 -12t-55.5 9t-43 22t-12 16t-7 28t2 24t12 12t20 -2t33 -34t53 -5.5t37 50t-4.5 50.5t-35 30.5t-62 9.5t-83 -10.5t-73.5 -28.5t-54 -40l-43 -36l-36.5 -33.5t-66 -71.5t-97.5 -70.5t-113 -2t-74.5 61.5
t-5.5 93.5t28.5 66.5t54.5 30.5t66 16t38 1.5t13 -11t10 -22t-9 -31t-21 -25t-22 -10t-28.5 6t-40 6.5t-46.5 -32t-0.5 -60t79 -20.5t80.5 18t50.5 22t72 55l86.5 83.5t77.5 72t78 42t64.5 16.5t52 2z" />
    <glyph glyph-name="quotedblleft" unicode="&#x201c;" horiz-adv-x="698" 
d="M228 2047q48 -7 67 -24l-13 -60l-12 -122l-31 -144q-29 29 -37 54l-14 263q11 18 40 33zM46 2048q26 -12 63 -27l-6 -73v-183q1 -61 -8 -62.5t-37 14.5q-7 22 -8 49q-4 21 -2 49l-35 148l-13 52q19 19 46 33z" />
    <glyph glyph-name="quotedblright" unicode="&#x201d;" horiz-adv-x="699" 
d="M228 2047q48 -7 67 -24l-13 -60l-12 -122l-31 -144q-29 29 -37 54l-14 263q11 18 40 33zM46 2048q26 -12 63 -27l-6 -73v-183q1 -61 -8 -62.5t-37 14.5q-7 22 -8 49q-4 21 -2 49l-35 148l-13 52q19 19 46 33z" />
    <glyph glyph-name="quoteleft" unicode="&#x2018;" horiz-adv-x="494" 
d="M142.5 1586q-18.5 24 -24 56.5t14 79t42 89t59.5 72t50 25.5t17.5 -19t-16 -18t-44.5 -24.5t-34 -49t-15 -70.5l20 -3q66 -12 80 -40t7 -55.5t-17.5 -37.5t-23 -19t-55 -9.5t-61 23.5z" />
    <glyph glyph-name="quoteright" unicode="&#x2019;" horiz-adv-x="499" 
d="M277 1885q19 -24 24.5 -56.5t-14.5 -79t-42 -89t-59 -72t-50 -25.5t-18 19t15.5 18t44.5 24.5t34.5 49t15.5 70.5l-20 2q-67 13 -80.5 41t-7 55.5t17 37t23.5 18.5t55 10t61 -23z" />
    <glyph glyph-name="cent" unicode="&#xa2;" horiz-adv-x="697" 
d="M511.5 1316q72.5 -47 77.5 -63.5t-14.5 -9.5l-48.5 17.5t-86 5.5t-84.5 -33t-75 -113.5t-62 -186.5t-1.5 -147.5t42.5 -78t83 -37t104.5 9.5t78.5 43t45 57.5t31 54.5t26.5 25q-3 -38 -22.5 -71l-34 -55.5t-29 -40.5t-41 -36t-75 -29.5t-102 -13.5t-88.5 10.5t-68 40.5
t-54.5 91.5t-17 151.5t61.5 206.5t169 183.5t184.5 18zM445.5 1107.5q-36.5 -477.5 -70.5 -648.5t-48 -151t9 459l36.5 683t61.5 189.5t11.5 -532z" />
  </font>
</defs>
</svg>
